#N canvas -158 -21 1360 725 12;
#X obj 758 515 dac~;
#X obj 759 481 *~;
#X obj 777 427 vsl 10 50 0 1 0 0 empty empty empty 0 -9 0 12 #fcfcfc #000000 #000000 0 1;
#X obj 761 353 osc~;
#X msg 317 483 523.248, f 8;
#X obj 798 458 vline~;
#X text 316 428 C1, f 3;
#X text 274 314 B## C2;
#X text 233 429 B1;
#X text 190 321 Bb2;
#X text 186 188 A# B3;
#X text 157 427 A1;
#X text 116 309 G# A2;
#X text 111 207 Ab3;
#X text 90 427 G1;
#X text 48 309 F# G2;
#X text 44 207 Gb3;
#X text 23 429 F1;
#X text 371 311 C# D2;
#X text 367 209 Db3;
#X text 439 194 D# E3;
#X text 439 326 Eb2;
#X text 514 312 E# F2;
#X text 481 428 E1;
#X text 544 429 F1, f 3;
#X text 617 429 G1;
#X text 570 210 Gb3;
#X text 575 312 F# G2;
#X text 642 209 Ab3;
#X text 641 312 G# A2, f 3;
#X text 314 76 C3, f 3;
#X text 48 -131 G6;
#X text 45 -23 Gb5;
#X text 114 -132 A6;
#X text 113 -23 Ab5;
#X text 21 79 F3;
#X text 92 76 G4;
#X text 157 78 A4;
#X text 237 79 B4;
#X text 189 -21 Bb5;
#X text 190 -134 B6;
#X text 370 -130 D6;
#X text 371 -20 Db5;
#X text 440 -133 E6;
#X text 435 -18 Eb5;
#X text 413 75 D4;
#X text 416 426 D1;
#X text 479 76 E4;
#X text 544 79 F3, f 3;
#X text 572 -17 Gb5;
#X text 573 -129 G6;
#X text 645 -130 A6;
#X text 641 -17 Ab5;
#X msg 272 387 518.357;
#X msg 235 483 509.622;
#X msg 187 266 496.463;
#X msg 184 385 501.035;
#X msg 160 482 488.098;
#X msg 114 266 479.874;
#X msg 114 387 475.495;
#X msg 93 482 476.483;
#X msg 47 266 459.606;
#X msg 47 389 455.412;
#X msg 22 485 447.738;
#X msg 370 268 537.117;
#X msg 370 384 532.215;
#X msg 416 484 546.322;
#X msg 438 268 555.685;
#X msg 437 384 560.803;
#X msg 482 485 570.414;
#X msg 512 385 580.19;
#X msg 545 485 585.534;
#X msg 573 269 601.054;
#X msg 573 385 595.569;
#X msg 641 269 627.559;
#X msg 637 383 621.832;
#X msg 619 485 611.355;
#X msg 22 130 451.861;
#X msg 50 -75 468.11, f 7;
#X msg 46 33 463.838;
#X msg 93 129 471.788;
#X msg 117 -74 488.753;
#X msg 113 33 484.293;
#X msg 160 129 492.593;
#X msg 190 -75 510.307;
#X msg 188 34 505.65;
#X msg 235 130 514.316;
#X msg 317 130 528.066, f 8;
#X msg 377 -71 546.933;
#X msg 373 37 542.063;
#X msg 416 131 551.353;
#X msg 443 -70 571.18, f 7;
#X msg 439 37 565.968;
#X msg 482 132 575.667;
#X msg 579 -70 612.176;
#X msg 575 39 606.589;
#X msg 547 132 590.926;
#X msg 645 -71 639.172;
#X msg 641 38 633.339;
#X text 616 76 G4;
#X msg 619 132 616.985;
#X floatatom -84 -100 3 0 0 0 - - - 0;
#X obj 22 446 r k;
#X obj 93 443 r k;
#X obj 160 443 r k;
#X obj 236 445 r k;
#X obj 416 445 r k;
#X obj 482 446 r k;
#X obj 545 446 r k;
#X obj 619 446 r k;
#X obj 317 444 r k;
#X obj 46 351 r k;
#X obj 117 342 r k;
#X obj 184 345 r k;
#X obj 273 348 r k;
#X obj 22 505 s p;
#X obj 93 501 s p;
#X obj 160 501 s p;
#X obj 234 501 s p;
#X obj 317 502 s p;
#X obj 416 503 s p;
#X obj 482 505 s p;
#X obj 545 504 s p;
#X obj 619 505 s p;
#X obj 761 332 r p;
#X obj -84 -120 keyname;
#X obj -84 -81 s b;
#X obj -38 -75 s k;
#X symbolatom -38 -101 8 0 0 0 - - - 0;
#X obj 22 464 sel z;
#X obj 93 461 sel x;
#X obj 161 463 sel c;
#X obj 234 464 sel v;
#X obj 317 463 sel b;
#X obj 417 463 sel n;
#X obj 482 466 sel m;
#X obj 619 465 sel .;
#X obj 47 409 s p;
#X obj 114 407 s p;
#X obj 184 405 s p;
#X obj 272 405 s p;
#X obj 370 403 s p;
#X obj 437 403 s p;
#X obj 512 405 s p;
#X obj 572 404 s p;
#X obj 637 402 s p;
#X obj 436 344 r k;
#X obj 512 343 r k;
#X obj 573 344 r k;
#X obj 638 342 r k;
#X obj 369 343 r k;
#X obj 46 369 sel s;
#X obj 117 360 sel d;
#X obj 184 363 sel f;
#X obj 272 367 sel g;
#X obj 369 362 sel h;
#X obj 437 362 sel j;
#X obj 512 363 sel k;
#X obj 574 363 sel l;
#X obj 47 285 s p;
#X obj 114 286 s p;
#X obj 187 286 s p;
#X obj 370 288 s p;
#X obj 438 288 s p;
#X obj 574 289 s p;
#X obj 641 288 s p;
#X obj 47 226 r k;
#X obj 116 222 r k;
#X obj 185 225 r k;
#X obj 437 229 r k;
#X obj 572 229 r k;
#X obj 640 230 r k;
#X obj 370 229 r k;
#X obj 47 244 sel w;
#X obj 116 240 sel e;
#X obj 186 243 sel r;
#X obj 370 249 sel y;
#X obj 438 246 sel u;
#X obj 573 248 sel o;
#X obj 640 249 sel p;
#X obj 638 361 sel \;;
#X obj 22 94 r k;
#X obj 93 91 r k;
#X obj 160 91 r k;
#X obj 236 93 r k;
#X obj 416 93 r k;
#X obj 482 94 r k;
#X obj 545 94 r k;
#X obj 619 94 r k;
#X obj 317 92 r k;
#X obj 23 152 s p;
#X obj 94 148 s p;
#X obj 161 148 s p;
#X obj 235 148 s p;
#X obj 318 149 s p;
#X obj 417 150 s p;
#X obj 483 152 s p;
#X obj 546 151 s p;
#X obj 620 152 s p;
#X obj 22 112 sel Z;
#X obj 93 109 sel X;
#X obj 161 111 sel C;
#X obj 234 112 sel V;
#X obj 317 111 sel B;
#X obj 417 111 sel N;
#X obj 482 114 sel M;
#X obj 545 465 sel \,;
#X obj 618 114 sel >;
#X obj 545 113 sel <;
#X obj 46 52 s p;
#X obj 113 53 s p;
#X obj 188 53 s p;
#X obj 373 57 s p;
#X obj 439 57 s p;
#X obj 575 58 s p;
#X obj 641 56 s p;
#X obj 47 -2 r k;
#X obj 116 -6 r k;
#X obj 185 -3 r k;
#X obj 439 -1 r k;
#X obj 574 -1 r k;
#X obj 642 0 r k;
#X obj 372 -1 r k;
#X obj 47 16 sel S;
#X obj 116 12 sel D;
#X obj 186 15 sel F;
#X obj 372 19 sel H;
#X obj 440 16 sel J;
#X obj 575 18 sel L;
#X obj 643 20 sel :;
#X obj 51 -53 s p;
#X obj 118 -55 s p;
#X obj 190 -56 s p;
#X obj 377 -51 s p;
#X obj 444 -51 s p;
#X obj 579 -50 s p;
#X obj 644 -52 s p;
#X obj 49 -112 r k;
#X obj 118 -116 r k;
#X obj 187 -113 r k;
#X obj 441 -111 r k;
#X obj 576 -111 r k;
#X obj 644 -110 r k;
#X obj 374 -111 r k;
#X obj 49 -94 sel W;
#X obj 118 -98 sel E;
#X obj 188 -95 sel R;
#X obj 374 -91 sel Y;
#X obj 442 -94 sel U;
#X obj 577 -92 sel I;
#X obj 645 -91 sel O;
#X obj 798 406 sel 1;
#X obj 845 405 sel 0;
#X msg 845 433 0 100;
#X obj 798 383 r b;
#X obj 908 433 midiout;
#X obj 908 367 nbx 3 14 -1e+37 1e+37 0 0 empty empty empty 0 -8 0 10 #dcdcdc #000000 #000000 0 256;
#X obj 951 367 nbx 5 14 -1e+37 1e+37 0 0 empty empty empty 0 -8 0 10 #dcdcdc #000000 #000000 0 256;
#X obj 995 366 nbx 3 14 -1e+37 1e+37 0 0 empty empty empty 0 -8 0 10 #dcdcdc #000000 #000000 0 256;
#X obj 908 400 else/note.out 4;
#X obj 798 487 snapshot~;
#X floatatom 806 515 9 0 0 0 empty - - 16;
#X obj 896 503 metro 20;
#X obj 896 464 tgl 25 0 empty empty empty 17 7 0 10 #e3dfd9 #5a5a5a #5a5a5a 0 1;
#X obj 806 546 * 127;
#X msg 798 432 0.9 50;
#X connect 1 0 0 0;
#X connect 1 0 0 1;
#X connect 2 0 1 1;
#X connect 3 0 1 0;
#X connect 4 0 119 0;
#X connect 5 0 1 1;
#X connect 5 0 260 0;
#X connect 53 0 140 0;
#X connect 54 0 118 0;
#X connect 55 0 161 0;
#X connect 56 0 139 0;
#X connect 57 0 117 0;
#X connect 58 0 160 0;
#X connect 59 0 138 0;
#X connect 60 0 116 0;
#X connect 61 0 159 0;
#X connect 62 0 137 0;
#X connect 63 0 115 0;
#X connect 64 0 162 0;
#X connect 65 0 141 0;
#X connect 66 0 120 0;
#X connect 67 0 163 0;
#X connect 68 0 142 0;
#X connect 69 0 121 0;
#X connect 70 0 143 0;
#X connect 71 0 122 0;
#X connect 72 0 164 0;
#X connect 73 0 144 0;
#X connect 74 0 165 0;
#X connect 75 0 145 0;
#X connect 76 0 123 0;
#X connect 77 0 190 0;
#X connect 78 0 230 0;
#X connect 79 0 209 0;
#X connect 80 0 191 0;
#X connect 81 0 231 0;
#X connect 82 0 210 0;
#X connect 83 0 192 0;
#X connect 84 0 232 0;
#X connect 85 0 211 0;
#X connect 86 0 193 0;
#X connect 87 0 194 0;
#X connect 88 0 233 0;
#X connect 89 0 212 0;
#X connect 90 0 195 0;
#X connect 91 0 234 0;
#X connect 92 0 213 0;
#X connect 93 0 196 0;
#X connect 94 0 235 0;
#X connect 95 0 214 0;
#X connect 96 0 197 0;
#X connect 97 0 236 0;
#X connect 98 0 215 0;
#X connect 100 0 198 0;
#X connect 101 0 126 0;
#X connect 102 0 129 0;
#X connect 103 0 130 0;
#X connect 104 0 131 0;
#X connect 105 0 132 0;
#X connect 106 0 134 0;
#X connect 107 0 135 0;
#X connect 108 0 206 0;
#X connect 109 0 136 0;
#X connect 110 0 133 0;
#X connect 111 0 151 0;
#X connect 112 0 152 0;
#X connect 113 0 153 0;
#X connect 114 0 154 0;
#X connect 124 0 3 0;
#X connect 124 0 3 1;
#X connect 124 0 256 0;
#X connect 125 0 101 0;
#X connect 125 1 128 0;
#X connect 128 0 127 0;
#X connect 129 0 63 0;
#X connect 130 0 60 0;
#X connect 131 0 57 0;
#X connect 132 0 54 0;
#X connect 133 0 4 0;
#X connect 134 0 66 0;
#X connect 135 0 69 0;
#X connect 136 0 76 0;
#X connect 146 0 156 0;
#X connect 147 0 157 0;
#X connect 148 0 158 0;
#X connect 149 0 180 0;
#X connect 150 0 155 0;
#X connect 151 0 62 0;
#X connect 152 0 59 0;
#X connect 153 0 56 0;
#X connect 154 0 53 0;
#X connect 155 0 65 0;
#X connect 156 0 68 0;
#X connect 157 0 70 0;
#X connect 158 0 73 0;
#X connect 166 0 173 0;
#X connect 167 0 174 0;
#X connect 168 0 175 0;
#X connect 169 0 177 0;
#X connect 170 0 178 0;
#X connect 171 0 179 0;
#X connect 172 0 176 0;
#X connect 173 0 61 0;
#X connect 174 0 58 0;
#X connect 175 0 55 0;
#X connect 176 0 64 0;
#X connect 177 0 67 0;
#X connect 178 0 72 0;
#X connect 179 0 74 0;
#X connect 180 0 75 0;
#X connect 181 0 199 0;
#X connect 182 0 200 0;
#X connect 183 0 201 0;
#X connect 184 0 202 0;
#X connect 185 0 204 0;
#X connect 186 0 205 0;
#X connect 187 0 208 0;
#X connect 188 0 207 0;
#X connect 189 0 203 0;
#X connect 199 0 77 0;
#X connect 200 0 80 0;
#X connect 201 0 83 0;
#X connect 202 0 86 0;
#X connect 203 0 87 0;
#X connect 204 0 90 0;
#X connect 205 0 93 0;
#X connect 206 0 71 0;
#X connect 207 0 100 0;
#X connect 208 0 96 0;
#X connect 216 0 223 0;
#X connect 217 0 224 0;
#X connect 218 0 225 0;
#X connect 219 0 227 0;
#X connect 220 0 228 0;
#X connect 221 0 229 0;
#X connect 222 0 226 0;
#X connect 223 0 79 0;
#X connect 224 0 82 0;
#X connect 225 0 85 0;
#X connect 226 0 89 0;
#X connect 227 0 92 0;
#X connect 228 0 95 0;
#X connect 229 0 98 0;
#X connect 237 0 244 0;
#X connect 238 0 245 0;
#X connect 239 0 246 0;
#X connect 240 0 248 0;
#X connect 241 0 249 0;
#X connect 242 0 250 0;
#X connect 243 0 247 0;
#X connect 244 0 78 0;
#X connect 245 0 81 0;
#X connect 246 0 84 0;
#X connect 247 0 88 0;
#X connect 248 0 91 0;
#X connect 249 0 94 0;
#X connect 250 0 97 0;
#X connect 251 0 265 0;
#X connect 252 0 253 0;
#X connect 253 0 5 0;
#X connect 254 0 251 0;
#X connect 254 0 252 0;
#X connect 256 0 259 0;
#X connect 257 0 259 1;
#X connect 258 0 259 2;
#X connect 259 0 255 0;
#X connect 260 0 261 0;
#X connect 261 0 264 0;
#X connect 262 0 260 0;
#X connect 263 0 262 0;
#X connect 264 0 257 0;
#X connect 265 0 5 0;
