#N canvas 24 52 679 369 12;
#X obj 249 374 pow;
#X msg 190 398 65406;
#X msg 227 347 2;
#X floatatom 267 322 5 0 0 0 - - - 0;
#X obj 267 347 / 3100;
#X floatatom 249 398 9 0 0 0 - - - 12;
#X obj 234 432 *;
#X floatatom 234 456 8 0 0 0 - - - 0;
#X obj 234 485 / 125;
#X floatatom 234 509 5 0 0 0 - - - 0;
#X obj 235 592 osc~;
#X obj 235 616 *~;
#X obj 235 640 dac~;
#X msg 38 239 -697;
#X msg 99 239 -504;
#X msg 159 239 -311;
#X msg 219 239 -118;
#X msg 279 239 0;
#X msg 329 239 193;
#X msg 389 239 386;
#X msg 449 239 503;
#X msg 509 239 696;
#X msg 55 208 -621;
#X msg 114 207 -428;
#X msg 179 208 -194;
#X msg 238 208 -42;
#X msg 294 207 76;
#X msg 345 207 310;
#X msg 405 207 462;
#X msg 465 208 579;
#X msg 525 207 772;
#X msg 55 175 -580;
#X msg 114 175 -387;
#X msg 179 174 -235;
#X msg 292 174 117;
#X msg 344 174 269;
#X msg 465 175 620;
#X msg 525 175 813;
#X msg 37 99 -656;
#X msg 97 99 -463;
#X msg 155 99 -270;
#X msg 223 99 -77;
#X msg 272 99 41;
#X msg 326 99 234;
#X msg 389 99 427;
#X msg 448 99 544;
#X msg 509 99 737;
#X msg 52 69 -539;
#X msg 113 69 -346;
#X msg 178 69 -153;
#X msg 290 69 158;
#X msg 344 69 351;
#X msg 468 69 661;
#X msg 523 69 854;
#X msg 52 39 -498;
#X msg 113 39 -305;
#X msg 178 39 -112;
#X msg 290 39 198;
#X msg 344 39 392;
#X msg 468 39 702;
#X msg 523 39 895;
#X obj 299 598 vline~;
#X msg 299 567 1 100 \, 0 100 200;
#X obj 234 536 + 523.248;
#X floatatom 234 565 5 0 0 0 empty - - 12;
#X connect 0 0 5 0;
#X connect 1 0 6 0;
#X connect 2 0 0 0;
#X connect 3 0 4 0;
#X connect 3 0 1 0;
#X connect 3 0 2 0;
#X connect 4 0 0 1;
#X connect 5 0 6 1;
#X connect 6 0 7 0;
#X connect 7 0 8 0;
#X connect 8 0 9 0;
#X connect 9 0 63 0;
#X connect 9 0 62 0;
#X connect 10 0 11 0;
#X connect 11 0 12 0;
#X connect 11 0 12 1;
#X connect 13 0 3 0;
#X connect 14 0 3 0;
#X connect 15 0 3 0;
#X connect 16 0 3 0;
#X connect 17 0 3 0;
#X connect 18 0 3 0;
#X connect 19 0 3 0;
#X connect 20 0 3 0;
#X connect 21 0 3 0;
#X connect 22 0 3 0;
#X connect 23 0 3 0;
#X connect 24 0 3 0;
#X connect 25 0 3 0;
#X connect 26 0 3 0;
#X connect 27 0 3 0;
#X connect 28 0 3 0;
#X connect 29 0 3 0;
#X connect 30 0 3 0;
#X connect 31 0 3 0;
#X connect 32 0 3 0;
#X connect 33 0 3 0;
#X connect 34 0 3 0;
#X connect 35 0 3 0;
#X connect 36 0 3 0;
#X connect 37 0 3 0;
#X connect 38 0 3 0;
#X connect 39 0 3 0;
#X connect 40 0 3 0;
#X connect 41 0 3 0;
#X connect 42 0 3 0;
#X connect 43 0 3 0;
#X connect 44 0 3 0;
#X connect 45 0 3 0;
#X connect 46 0 3 0;
#X connect 47 0 3 0;
#X connect 48 0 3 0;
#X connect 49 0 3 0;
#X connect 50 0 3 0;
#X connect 51 0 3 0;
#X connect 52 0 3 0;
#X connect 53 0 3 0;
#X connect 54 0 3 0;
#X connect 55 0 3 0;
#X connect 56 0 3 0;
#X connect 57 0 3 0;
#X connect 58 0 3 0;
#X connect 59 0 3 0;
#X connect 60 0 3 0;
#X connect 61 0 11 1;
#X connect 62 0 61 0;
#X connect 63 0 64 0;
#X connect 64 0 10 0;
