#N canvas 827 239 527 327 12;
#X obj 178 412 dac~;
#X obj 178 252 osc~;
#X floatatom 157 158 5 0 0 0 empty - - 12;
#X obj 249 288 vline~;
#X obj 178 331 *~;
#X obj 326 123 bng 25 250 50 0 empty empty empty 17 7 0 10 #e4e4e4 #4d4d4d #373737;
#X obj 157 211 + 400;
#X obj 108 252 osc~;
#X obj 87 211 + 1000;
#X obj 47 256 osc~;
#X obj 26 215 * 5;
#X obj 180 370 *~ -0.2 0.2;
#X obj 586 252 osc~;
#X floatatom 565 158 5 0 0 0 empty - - 12;
#X obj 657 288 vline~;
#X obj 586 331 *~;
#X obj 734 123 bng 25 250 50 0 empty empty empty 17 7 0 10 #e4e4e4 #4d4d4d #373737;
#X obj 565 211 + 400;
#X obj 516 252 osc~;
#X obj 495 211 + 1000;
#X obj 455 256 osc~;
#X obj 434 215 * 5;
#X obj 326 23 chance;
#X obj 351 56 del 100;
#X obj 502 77 del 230;
#X obj 396 123 del 250;
#X obj 267 90 loadbang;
#X obj 29 298 palette/noiseosc;
#X obj 85 -460 loadbang;
#X floatatom 85 -390 5 0 0 0 empty - - 12;
#X obj 58 -343 metro;
#X obj 45 -390 tgl 25 0 empty empty empty 17 7 0 10 #e4e4e4 #4d4d4d #373737 0 1;
#X obj 53 -306 bng 25 250 50 0 empty empty empty 17 7 0 10 #e4e4e4 #4d4d4d #373737;
#X obj 53 -272 int 1;
#X obj 115 -247 + 1;
#X floatatom 53 -229 5 0 0 0 empty - - 12;
#X obj 53 -173 + 1;
#X floatatom 53 -142 5 0 0 0 empty - - 12;
#X obj -29 -94 sel 1;
#X obj 21 -94 sel 2;
#X obj 82 -94 sel 3;
#X obj 138 -94 sel 4;
#X obj 193 -94 sel 5;
#X obj 253 -94 sel 6;
#X obj 312 -94 sel 7;
#X obj 375 -94 sel 8;
#X obj -29 -61 bng 17 250 50 0 empty empty empty 17 7 0 10 #e4e4e4 #4d4d4d #373737;
#X obj 138 -65 bng 20 250 50 0 empty empty empty 17 7 0 10 #e4e4e4 #4d4d4d #373737;
#X obj 193 -65 bng 20 250 50 0 empty empty empty 17 7 0 10 #e4e4e4 #4d4d4d #373737;
#X obj 253 -65 bng 20 250 50 0 empty empty empty 17 7 0 10 #e4e4e4 #4d4d4d #373737;
#X obj 375 -65 bng 20 250 50 0 empty empty empty 17 7 0 10 #e4e4e4 #4d4d4d #373737;
#X msg -33 -33 413;
#X msg 27 -35 523;
#X msg 87 -35 487;
#X msg 309 -33 530;
#X msg 85 -431 5;
#X msg 718 215 10 5 \, 0 20 250;
#X obj -46 242 osc~;
#X obj -116 242 osc~;
#X obj -177 246 osc~;
#X obj -26 321 *~;
#X obj -11 177 vline~;
#X obj -17 89 bng 25 250 50 0 empty empty empty 17 7 0 10 #e4e4e4 #4d4d4d #373737;
#X obj -17 56 del 30;
#X obj -67 201 + 410;
#X obj -137 201 + 850;
#X obj -198 205 * 7;
#X msg -11 134 10 10 \, 0 20 75;
#X obj -98 370 palette/reverb;
#X msg 252 -38 1050;
#X obj 434 -94 sel 9;
#X obj 432 -61 bng 20 250 50 0 empty empty empty 17 7 0 10 #e4e4e4 #4d4d4d #373737;
#X msg 310 215 10 10 \, 0 20 100;
#X obj 87 -65 chance;
#X msg 127 -431 250;
#X msg 134 -38 336;
#X msg 375 -33 2058;
#X msg 194 -34 3040;
#X msg 432 -29 1005;
#X obj 490 -97 sel 10;
#X obj 495 -65 bng 18 250 50 0 empty empty empty 17 7 0 10 #e4e4e4 #4d4d4d #373737;
#X obj 53 -202 % 10;
#X msg 502 -33 2149;
#X obj 304 -66 chance;
#X msg 165 -176 5;
#X msg 244 -191 7;
#X msg 308 -182 9;
#X msg 369 -191 10;
#X obj 19 -66 chance;
#X connect 1 0 4 0;
#X connect 2 0 6 0;
#X connect 2 0 8 0;
#X connect 2 0 10 0;
#X connect 2 0 64 0;
#X connect 2 0 65 0;
#X connect 2 0 66 0;
#X connect 3 0 4 1;
#X connect 4 0 11 0;
#X connect 5 0 72 0;
#X connect 5 0 22 0;
#X connect 5 0 25 0;
#X connect 5 0 63 0;
#X connect 6 0 1 0;
#X connect 7 0 4 0;
#X connect 8 0 7 0;
#X connect 9 0 4 0;
#X connect 10 0 9 0;
#X connect 11 0 0 0;
#X connect 11 0 0 1;
#X connect 12 0 15 0;
#X connect 13 0 17 0;
#X connect 13 0 19 0;
#X connect 13 0 21 0;
#X connect 14 0 15 1;
#X connect 15 0 11 0;
#X connect 16 0 56 0;
#X connect 17 0 12 0;
#X connect 18 0 15 0;
#X connect 19 0 18 0;
#X connect 20 0 15 0;
#X connect 21 0 20 0;
#X connect 22 0 5 0;
#X connect 22 0 23 0;
#X connect 23 0 5 0;
#X connect 23 0 24 0;
#X connect 24 0 16 0;
#X connect 25 0 5 0;
#X connect 26 0 5 0;
#X connect 27 0 4 0;
#X connect 28 0 55 0;
#X connect 28 0 31 0;
#X connect 29 0 30 1;
#X connect 30 0 32 0;
#X connect 31 0 30 0;
#X connect 32 0 33 0;
#X connect 33 0 34 0;
#X connect 33 0 35 0;
#X connect 34 0 33 1;
#X connect 35 0 81 0;
#X connect 36 0 37 0;
#X connect 37 0 38 0;
#X connect 37 0 42 0;
#X connect 37 0 43 0;
#X connect 37 0 44 0;
#X connect 37 0 45 0;
#X connect 37 0 41 0;
#X connect 37 0 40 0;
#X connect 37 0 39 0;
#X connect 37 0 70 0;
#X connect 37 0 79 0;
#X connect 38 0 46 0;
#X connect 39 0 88 0;
#X connect 40 0 73 0;
#X connect 41 0 47 0;
#X connect 42 0 48 0;
#X connect 43 0 49 0;
#X connect 44 0 83 0;
#X connect 45 0 50 0;
#X connect 46 0 51 0;
#X connect 47 0 75 0;
#X connect 48 0 77 0;
#X connect 49 0 69 0;
#X connect 50 0 76 0;
#X connect 51 0 2 0;
#X connect 52 0 2 0;
#X connect 53 0 2 0;
#X connect 54 0 2 0;
#X connect 55 0 29 0;
#X connect 56 0 14 0;
#X connect 57 0 60 0;
#X connect 58 0 60 0;
#X connect 59 0 60 0;
#X connect 60 0 68 0;
#X connect 61 0 60 1;
#X connect 62 0 67 0;
#X connect 63 0 62 0;
#X connect 64 0 57 0;
#X connect 65 0 58 0;
#X connect 66 0 59 0;
#X connect 67 0 61 0;
#X connect 68 0 11 0;
#X connect 69 0 2 0;
#X connect 70 0 71 0;
#X connect 71 0 78 0;
#X connect 72 0 3 0;
#X connect 73 0 53 0;
#X connect 74 0 29 0;
#X connect 75 0 2 0;
#X connect 76 0 2 0;
#X connect 77 0 2 0;
#X connect 78 0 2 0;
#X connect 79 0 80 0;
#X connect 80 0 82 0;
#X connect 81 0 36 0;
#X connect 82 0 2 0;
#X connect 83 0 54 0;
#X connect 84 0 81 1;
#X connect 85 0 81 1;
#X connect 86 0 81 1;
#X connect 87 0 81 1;
#X connect 88 0 52 0;
