#N canvas 10 31 1207 317 12;
#X obj 432 599 *~ -0.9 0.9;
#X obj 453 275 *~;
#X obj 444 201 osc~ 440;
#X obj 570 236 vline~;
#X obj 763 297 *~;
#X obj 880 258 vline~;
#X obj 754 223 osc~ 445;
#X obj 884 107 bng 19 250 50 0 empty empty empty 0 -10 0 12 #fcfcfc #000000 #000000;
#X obj 823 185 del 10;
#X obj 710 443 *~;
#X obj 827 404 vline~;
#X obj 1020 468 *~;
#X obj 1137 426 vline~;
#X obj 1080 353 del 10;
#X obj 879 306 del 330;
#X obj 1022 2 random 100;
#X floatatom 1022 26 5 0 0 0 - - - 0;
#X obj 1020 57 < 40;
#X obj 1012 389 osc~ 500;
#X obj 701 369 osc~ 503;
#X msg 851 336 1 10 \, 1 50 2000 \, 0 1000 50;
#X msg 1161 358 1 50 \, 1 50 20 \, 0 1000 50;
#X floatatom 1020 84 5 0 0 0 - - - 0;
#X msg 595 168 1 300 \, 1 50 30 \, 0 600 50;
#X obj 972 300 *~;
#X obj 1089 261 vline~;
#X obj 1282 322 *~;
#X obj 1399 283 vline~;
#X obj 1342 210 del 10;
#X obj 1229 468 *~;
#X obj 1346 429 vline~;
#X obj 1539 493 *~;
#X obj 1656 451 vline~;
#X obj 1599 378 del 10;
#X msg 1370 361 1 10 \, 1 50 2000 \, 0 1000 50;
#X msg 1680 383 1 50 \, 1 50 20 \, 0 1000 50;
#X msg 1114 193 1 300 \, 1 50 30 \, 0 600 50;
#X obj 974 125 spigot;
#X obj 1016 104 tgl 19 0 empty empty empty 0 -10 0 12 #fcfcfc #000000 #000000 0 1;
#X obj 1531 416 osc~ 5000;
#X obj 1220 393 osc~ 4030;
#X obj 1273 248 osc~ 2000;
#X obj 963 226 osc~ 1080;
#X msg 1425 217 1 10 \, 0 50 500 1000 50;
#X msg 904 190 1 10 \, 1 50 500 \, 0 1000 50;
#X obj 1180 141 del 500;
#X obj 1398 331 del 30;
#X obj 428 882 clip~ -0.9 0.9;
#X floatatom 978 585 4 0 100 0 - - - 0;
#X obj 898 976 *~;
#N canvas 122 211 563 534 fft 0;
#X obj 19 61 inlet~;
#X obj 208 212 inlet;
#X obj 29 92 rfft~;
#X obj 29 125 *~;
#X obj 60 125 *~;
#X obj 29 155 sqrt~;
#X obj 332 109 block~ 4096 1;
#X obj 29 181 biquad~ 0 0 0 0 1;
#X text 93 93 Fourier series;
#X text 98 146 magnitude;
#X text 96 131 calculate;
#X text 21 3 This subpatch computes the spectrum of the incoming signal with a (rectangular windowed) FFT. FFTs aren't properly introduced until much later.;
#X text 83 61 signal to analyze;
#X text 193 164 delay two samples;
#X text 191 182 for better graphing;
#X obj 264 434 samplerate~;
#X obj 245 262 metro 500;
#X obj 245 233 inlet;
#X text 298 231 toggle to graph repeatedly;
#X text 262 212 bang to graph once;
#X obj 29 205 /~ 4096;
#X obj 264 409 bang~;
#X obj 264 483 s freq;
#X obj 264 457 / 256;
#X obj 19 295 tabwrite~ F05-signal;
#X obj 245 294 tabwrite~ F05-spectrum;
#X msg 224 321 \; pd dsp 1;
#X connect 0 0 2 0;
#X connect 0 0 24 0;
#X connect 1 0 24 0;
#X connect 1 0 25 0;
#X connect 1 0 26 0;
#X connect 2 0 3 0;
#X connect 2 0 3 1;
#X connect 2 1 4 0;
#X connect 2 1 4 1;
#X connect 3 0 5 0;
#X connect 4 0 5 0;
#X connect 5 0 7 0;
#X connect 7 0 20 0;
#X connect 15 0 23 0;
#X connect 16 0 24 0;
#X connect 16 0 25 0;
#X connect 17 0 16 0;
#X connect 17 0 26 0;
#X connect 20 0 25 0;
#X connect 21 0 15 0;
#X connect 23 0 22 0;
#X restore 1002 971 pd fft;
#X f 8;
#X obj 1021 945 bng 19 250 50 0 empty empty empty 0 -6 0 8 #dfdfdf #000000 #000000;
#X obj 1041 929 tgl 19 0 empty empty empty 0 -6 0 8 #dfdfdf #000000 #000000 0 1;
#X floatatom 914 902 0 0 100 0 - - - 0;
#X obj 916 953 osc~;
#X obj 916 925 *;
#X obj 1027 719 line~;
#X obj 897 798 cos~;
#X obj 1027 695 pack 0 50;
#X obj 894 724 -~ 0.5;
#X obj 895 747 *~;
#X obj 981 613 / 10;
#X obj 981 637 moses 0;
#X msg 981 661 0;
#X obj 897 774 clip~ -0.5 0.5;
#X obj 1027 743 +~ 1;
#X obj 897 822 +~ 1;
#X obj 897 846 *~ 0.5;
#X obj 893 701 phasor~;
#N canvas 0 0 450 300 (subpatch) 0;
#X array F05-signal 882 float 0;
#X coords 0 1 882 -1 200 130 1;
#X restore 1211 818 graph;
#N canvas 0 0 450 300 (subpatch) 0;
#X array F05-spectrum 256 float 0;
#X coords 0 0.51 255 -0.008 256 130 1;
#X restore 1153 595 graph;
#X text 1149 728 0;
#X text 1188 747 -- partial number --;
#X text 1415 715 0;
#X text 1412 592 0.5;
#X text 1181 728 2;
#X text 1213 728 4;
#X text 1245 728 6;
#X text 1277 728 8;
#X text 1310 728 10;
#X text 1342 728 12;
#X text 1373 728 14;
#X text 1416 813 1;
#X obj 570 582 loadbang;
#X obj 573 659 snapshot~;
#X floatatom 573 683 9 0 0 0 - - - 0;
#X obj 577 606 tgl 19 0 empty empty empty 0 -10 0 12 #fcfcfc #000000 #000000 0 1;
#X obj 425 927 *~;
#X obj 402 1072 dac~;
#X obj 528 591 vsl 10 50 0 0.9 0 0 empty empty empty 0 -9 0 12 #fcfcfc #000000 #000000 0 1;
#X obj 544 592 vsl 10 50 0 0.9 0 0 empty empty empty 0 -9 0 12 #fcfcfc #000000 #000000 0 1;
#X floatatom 935 980 5 0 0 0 - - - 0;
#X floatatom 977 901 5 0 0 0 - - - 0;
#X obj 893 637 osc~;
#X floatatom 888 606 5 0 0 0 - - - 0;
#X obj 821 659 snapshot~;
#X floatatom 821 683 5 0 0 0 - - - 0;
#X obj 825 604 tgl 19 0 empty empty empty 0 -10 0 12 #fcfcfc #000000 #000000 0 1;
#X obj 821 635 metro 20;
#X obj 574 715 s env;
#X obj 953 847 r env;
#X obj 953 871 * 100;
#X obj 389 785 rev3~, f 16;
#X floatatom 413 729 5 0 0 0 - - - 0;
#X floatatom 442 754 5 0 100 0 - - - 0;
#X floatatom 491 756 5 0 0 0 - - - 0;
#X obj 381 921 *~;
#X obj 462 930 vsl 10 50 0 0.9 0 0 empty empty empty 0 -9 0 12 #fcfcfc #000000 #000000 0 1;
#X obj 388 830 clip~ -0.9 0.9;
#X obj 406 1031 *~;
#X obj 480 1022 vsl 10 50 0 0.9 0 0 empty empty empty 0 -9 0 12 #fcfcfc #000000 #000000 0 1;
#X obj 669 823 delread~ del;
#X obj 553 761 delwrite~ del 3000;
#X obj 695 749 *~;
#X obj 728 692 vsl 10 50 0 0.9 0 0 empty empty empty 0 -9 0 12 #fcfcfc #000000 #000000 0 1;
#X floatatom 648 792 5 0 0 0 - - - 0;
#X obj 426 976 *~;
#X obj 470 935 vsl 10 50 0 0.9 0 0 empty empty empty 0 -9 0 12 #fcfcfc #000000 #000000 0 1;
#X floatatom 471 667 5 0 0 0 - - - 0;
#X obj 898 1009 hip~ 3500;
#X obj 469 701 bp~;
#X floatatom 519 678 5 0 0 0 - - - 0;
#X floatatom 629 602 5 0 0 0 - - - 0;
#X obj 573 635 metro 80;
#X connect 0 0 84 0;
#X connect 0 0 102 0;
#X connect 0 0 120 0;
#X connect 0 0 47 0;
#X connect 1 0 0 0;
#X connect 2 0 1 0;
#X connect 3 0 1 1;
#X connect 4 0 0 0;
#X connect 5 0 4 1;
#X connect 6 0 4 0;
#X connect 7 0 44 0;
#X connect 7 0 23 0;
#X connect 7 0 45 0;
#X connect 8 0 23 0;
#X connect 8 0 14 0;
#X connect 9 0 0 0;
#X connect 10 0 9 1;
#X connect 11 0 0 0;
#X connect 12 0 11 1;
#X connect 13 0 15 0;
#X connect 13 0 37 0;
#X connect 14 0 21 0;
#X connect 15 0 16 0;
#X connect 16 0 17 0;
#X connect 17 0 22 0;
#X connect 18 0 11 0;
#X connect 19 0 9 0;
#X connect 20 0 10 0;
#X connect 20 0 13 0;
#X connect 21 0 12 0;
#X connect 21 0 13 0;
#X connect 22 0 38 0;
#X connect 23 0 3 0;
#X connect 24 0 0 0;
#X connect 25 0 24 1;
#X connect 26 0 0 0;
#X connect 27 0 26 1;
#X connect 28 0 36 0;
#X connect 28 0 46 0;
#X connect 29 0 0 0;
#X connect 30 0 29 1;
#X connect 31 0 0 0;
#X connect 32 0 31 1;
#X connect 33 0 34 0;
#X connect 34 0 30 0;
#X connect 35 0 32 0;
#X connect 35 0 33 0;
#X connect 35 0 7 0;
#X connect 36 0 25 0;
#X connect 37 0 7 0;
#X connect 38 0 37 1;
#X connect 39 0 31 0;
#X connect 40 0 29 0;
#X connect 41 0 26 0;
#X connect 42 0 24 0;
#X connect 43 0 27 0;
#X connect 43 0 28 0;
#X connect 44 0 5 0;
#X connect 44 0 8 0;
#X connect 45 0 43 0;
#X connect 46 0 35 0;
#X connect 47 0 87 0;
#X connect 48 0 61 0;
#X connect 49 0 50 0;
#X connect 49 0 87 1;
#X connect 49 0 119 0;
#X connect 51 0 50 1;
#X connect 52 0 50 2;
#X connect 53 0 55 0;
#X connect 54 0 49 1;
#X connect 55 0 54 0;
#X connect 56 0 65 0;
#X connect 57 0 66 0;
#X connect 58 0 56 0;
#X connect 59 0 60 0;
#X connect 60 0 64 0;
#X connect 61 0 62 0;
#X connect 62 0 63 0;
#X connect 62 1 58 0;
#X connect 63 0 58 0;
#X connect 64 0 57 0;
#X connect 65 0 60 1;
#X connect 66 0 67 0;
#X connect 67 0 49 0;
#X connect 68 0 59 0;
#X connect 84 0 85 0;
#X connect 85 0 99 0;
#X connect 86 0 123 0;
#X connect 87 0 116 0;
#X connect 90 0 0 1;
#X connect 91 0 119 1;
#X connect 92 0 55 1;
#X connect 93 0 95 0;
#X connect 94 0 93 0;
#X connect 95 0 96 0;
#X connect 96 0 68 0;
#X connect 97 0 98 0;
#X connect 98 0 95 0;
#X connect 100 0 101 0;
#X connect 101 0 53 0;
#X connect 102 0 108 0;
#X connect 103 0 102 2;
#X connect 104 0 102 3;
#X connect 105 0 102 4;
#X connect 106 0 109 0;
#X connect 107 0 106 1;
#X connect 108 0 106 0;
#X connect 109 0 88 0;
#X connect 109 0 88 1;
#X connect 110 0 109 1;
#X connect 111 0 113 0;
#X connect 111 0 106 0;
#X connect 113 0 112 0;
#X connect 114 0 113 1;
#X connect 115 0 111 0;
#X connect 116 0 109 0;
#X connect 117 0 116 1;
#X connect 118 0 120 1;
#X connect 119 0 112 0;
#X connect 120 0 112 0;
#X connect 121 0 120 2;
#X connect 122 0 123 1;
#X connect 123 0 84 0;
