#N canvas 827 239 527 327 12;
#X obj 199 275 dac~;
#X obj 253 167 *~;
#X obj 85 -460 loadbang;
#X floatatom 85 -390 5 0 0 0 empty - - 12;
#X obj 58 -343 metro;
#X obj 45 -390 tgl 25 0 empty empty empty 17 7 0 10 #e4e4e4 #4d4d4d #373737 0 1;
#X obj 53 -306 bng 25 250 50 0 empty empty empty 17 7 0 10 #e4e4e4 #4d4d4d #373737;
#X obj 53 -272 int 1;
#X obj 115 -247 + 1;
#X floatatom 53 -229 5 0 0 0 empty - - 12;
#X obj 53 -173 + 1;
#X floatatom 53 -142 5 0 0 0 empty - - 12;
#X obj -29 -94 sel 1;
#X obj 65 -90 sel 2;
#X obj 171 -91 sel 3;
#X obj 258 -91 sel 4;
#X obj 358 -91 sel 5;
#X obj 472 -90 sel 6;
#X obj -29 -61 bng 17 250 50 0 empty empty empty 17 7 0 10 #e4e4e4 #4d4d4d #373737;
#X obj 258 -62 bng 20 250 50 0 empty empty empty 17 7 0 10 #e4e4e4 #4d4d4d #373737;
#X obj 358 -62 bng 20 250 50 0 empty empty empty 17 7 0 10 #e4e4e4 #4d4d4d #373737;
#X obj 472 -61 bng 20 250 50 0 empty empty empty 17 7 0 10 #e4e4e4 #4d4d4d #373737;
#X obj 25 68 osc~;
#X obj 74 -59 bng 17 250 50 0 empty empty empty 17 7 0 10 #e4e4e4 #4d4d4d #373737;
#X obj 173 -62 bng 17 250 50 0 empty empty empty 17 7 0 10 #e4e4e4 #4d4d4d #373737;
#X obj 358 68 osc~;
#X obj 201 233 *~ -0.9 0.9;
#X obj 156 167 *~;
#X obj 112 153 vsl 17 128 0 1 0 0 empty empty empty 0 -9 0 10 #e3dfd9 #5a5a5a #5a5a5a 0 1;
#X obj 320 137 vsl 17 128 0 1 0 0 empty empty empty 0 -9 0 10 #e3dfd9 #5a5a5a #5a5a5a 0 1;
#X msg -33 -33 83;
#X msg 71 -31 74;
#X msg 176 -32 94;
#X msg 17 -6 150;
#X msg -88 -6 253.2;
#X msg 122 -6 379;
#X msg 39 153 0.8;
#X obj 37 120 loadbang;
#X msg 386 153 0.25;
#X msg 391 191 1;
#X msg 391 228 0.35;
#X msg 277 -31 83;
#X msg 232 -6 83;
#X msg 378 -30 94;
#X obj 335 -6 94;
#X msg 486 -30 74;
#X obj 441 -6 74;
#X obj 53 -202 % 6;
#X obj -26 -209 random 6;
#X msg 85 -431 20000;
#X floatatom 77 301 5 0 0 0 empty - - 12;
#X msg 27 200 0.3;
#X connect 1 0 26 0;
#X connect 2 0 49 0;
#X connect 2 0 5 0;
#X connect 3 0 4 1;
#X connect 4 0 6 0;
#X connect 5 0 4 0;
#X connect 6 0 7 0;
#X connect 6 0 48 0;
#X connect 7 0 8 0;
#X connect 7 0 9 0;
#X connect 8 0 7 1;
#X connect 9 0 47 0;
#X connect 11 0 12 0;
#X connect 11 0 16 0;
#X connect 11 0 17 0;
#X connect 11 0 15 0;
#X connect 11 0 14 0;
#X connect 11 0 13 0;
#X connect 12 0 18 0;
#X connect 13 0 23 0;
#X connect 14 0 24 0;
#X connect 15 0 19 0;
#X connect 16 0 20 0;
#X connect 17 0 21 0;
#X connect 18 0 30 0;
#X connect 18 0 34 0;
#X connect 18 0 38 0;
#X connect 18 0 36 0;
#X connect 19 0 41 0;
#X connect 19 0 42 0;
#X connect 19 0 38 0;
#X connect 19 0 51 0;
#X connect 20 0 43 0;
#X connect 20 0 44 0;
#X connect 20 0 40 0;
#X connect 20 0 51 0;
#X connect 21 0 45 0;
#X connect 21 0 46 0;
#X connect 21 0 39 0;
#X connect 21 0 51 0;
#X connect 22 0 27 0;
#X connect 23 0 31 0;
#X connect 23 0 33 0;
#X connect 23 0 39 0;
#X connect 23 0 36 0;
#X connect 24 0 32 0;
#X connect 24 0 35 0;
#X connect 24 0 40 0;
#X connect 24 0 36 0;
#X connect 25 0 1 0;
#X connect 26 0 0 0;
#X connect 26 0 0 1;
#X connect 27 0 26 0;
#X connect 28 0 27 1;
#X connect 28 0 50 0;
#X connect 29 0 1 1;
#X connect 30 0 25 0;
#X connect 31 0 25 0;
#X connect 32 0 25 0;
#X connect 33 0 22 0;
#X connect 34 0 22 0;
#X connect 35 0 22 0;
#X connect 36 0 28 0;
#X connect 37 0 36 0;
#X connect 38 0 29 0;
#X connect 39 0 29 0;
#X connect 40 0 29 0;
#X connect 41 0 25 0;
#X connect 43 0 25 0;
#X connect 45 0 25 0;
#X connect 47 0 10 0;
#X connect 48 0 11 0;
#X connect 49 0 3 0;
#X connect 51 0 28 0;
