#N canvas 1920 22 1366 712 12;
#X obj 253 167 *~;
#X obj 85 -460 loadbang;
#X floatatom 85 -390 5 0 0 0 empty - - 12;
#X obj 58 -343 metro;
#X obj 45 -390 tgl 25 0 empty empty empty 17 7 0 10 #e4e4e4 #4d4d4d #373737 0 1;
#X obj 53 -306 bng 25 250 50 0 empty empty empty 17 7 0 10 #e4e4e4 #4d4d4d #373737;
#X obj 53 -252 int 1;
#X obj 115 -227 + 1;
#X floatatom 53 -229 5 0 0 0 empty - - 12;
#X obj 53 -173 + 1;
#X floatatom 53 -142 5 0 0 0 empty - - 12;
#X obj -29 -94 sel 1;
#X obj 65 -90 sel 2;
#X obj 171 -91 sel 3;
#X obj 258 -91 sel 4;
#X obj 358 -91 sel 5;
#X obj 472 -90 sel 6;
#X obj -29 -61 bng 17 250 50 0 empty empty empty 17 7 0 10 #e4e4e4 #4d4d4d #373737;
#X obj 258 -62 bng 20 250 50 0 empty empty empty 17 7 0 10 #e4e4e4 #4d4d4d #373737;
#X obj 358 -62 bng 20 250 50 0 empty empty empty 17 7 0 10 #e4e4e4 #4d4d4d #373737;
#X obj 472 -61 bng 20 250 50 0 empty empty empty 17 7 0 10 #e4e4e4 #4d4d4d #373737;
#X obj 25 68 osc~;
#X obj 74 -59 bng 17 250 50 0 empty empty empty 17 7 0 10 #e4e4e4 #4d4d4d #373737;
#X obj 173 -62 bng 17 250 50 0 empty empty empty 17 7 0 10 #e4e4e4 #4d4d4d #373737;
#X obj 358 68 osc~;
#X obj 156 167 *~;
#X obj 112 153 vsl 17 128 0 1 0 0 empty empty empty 0 -9 0 10 #e3dfd9 #5a5a5a #5a5a5a 0 1;
#X obj 320 137 vsl 17 128 0 1 0 0 empty empty empty 0 -9 0 10 #e3dfd9 #5a5a5a #5a5a5a 0 1;
#X msg -33 -33 83;
#X msg 71 -31 74;
#X msg 176 -32 94;
#X msg 17 -6 150;
#X msg -88 -6 253.2;
#X msg 122 -6 379;
#X msg 39 153 0.8;
#X obj 37 120 loadbang;
#X msg 386 153 0.25;
#X msg 391 191 1;
#X msg 391 228 0.35;
#X msg 277 -31 83;
#X msg 232 -6 83;
#X msg 378 -30 94;
#X obj 335 -6 94;
#X msg 486 -30 74;
#X obj 441 -6 74;
#X obj -26 -209 random 6;
#X msg 85 -431 20000;
#X floatatom 77 301 5 0 0 0 empty - - 12;
#X msg 27 200 0.3;
#X obj 200 351 rev3~, f 9;
#X floatatom 224 330 5 0 0 0 - - - 0;
#X floatatom 263 329 5 0 0 0 - - - 0;
#X obj 292 923 dac~;
#X obj -55 444 noise~;
#X obj -38 492 bp~, f 5;
#X obj 1 301 adc~;
#X obj 2 333 env~;
#X floatatom 2 360 9 0 0 0 - - - 0;
#X obj 0 434 * 100;
#X floatatom 8 487 5 0 0 0 - - - 0;
#X obj -14 597 *~;
#X obj 30 590 vsl 10 40 0 1 0 0 empty empty empty 0 -9 0 12 #fcfcfc #000000 #000000 0 1;
#X obj 64 435 noise~;
#X obj 81 483 bp~, f 5;
#X floatatom 127 477 5 0 0 0 - - - 0;
#X obj 100 595 *~;
#X obj 161 590 vsl 10 40 0 1 0 0 empty empty empty 0 -9 0 12 #fcfcfc #000000 #000000 0 1;
#X obj 119 425 * 180;
#X obj 173 455 noise~;
#X obj 195 485 bp~, f 5;
#X floatatom 238 473 5 0 0 0 - - - 0;
#X obj 219 594 *~;
#X obj 270 583 vsl 10 40 0 1 0 0 empty empty empty 0 -9 0 12 #fcfcfc #000000 #000000 0 1;
#X obj 297 428 noise~;
#X floatatom 370 402 5 0 0 0 - - - 0;
#X obj 333 592 *~;
#X obj 398 579 vsl 10 40 0 1 0 0 empty empty empty 0 -9 0 12 #fcfcfc #000000 #000000 0 1;
#X obj 233 428 * 300;
#X obj 1117 366 phasor~;
#X obj 1138 341 osc~;
#X floatatom 1136 316 5 0 0 0 - - - 0;
#X obj 1181 318 tgl 20 0 empty empty empty 0 -10 0 12 #fcfcfc #000000 #000000 0 1;
#X obj 1181 368 snapshot~;
#X floatatom 1181 393 5 0 0 0 - - - 0;
#X obj 1181 343 metro 50;
#X obj 58 772 *~;
#X obj 1111 389 snapshot~;
#X floatatom 1113 418 5 0 0 0 - - - 0;
#X obj 146 348 s env;
#X obj 1140 261 r env;
#X obj 352 418 * 10;
#X obj 314 476 lop~, f 5;
#X obj -33 544 clip~ -0.5 0.5;
#X obj 81 542 clip~ -0.3 0.3;
#X obj 201 537 clip~ -0.5 0.5;
#X obj 314 535 clip~ -0.9 0.9;
#X obj 200 390 clip~ -0.5 0.5;
#X obj 508 757 *~;
#X obj 542 747 vsl 10 40 0 1 0 0 empty empty empty 0 -9 0 12 #fcfcfc #000000 #000000 0 1;
#X obj 136 775 vline~;
#X obj 57 -274 s bang;
#X obj 146 699 r bang;
#X obj 53 -202 % 2;
#X obj 144 -320 random 2;
#X floatatom 228 -290 5 0 0 0 - - - 0;
#X obj 228 -265 sel 1;
#X obj 174 -221 del;
#X obj 132 -293 random 5000;
#X floatatom 132 -267 5 0 0 0 - - - 0;
#X obj 174 -195 bng 20 250 50 0 empty empty empty 0 -10 0 12 #fcfcfc #000000 #000000;
#X msg 142 735 1 10 \, 0.2 10 100;
#X msg 210 703 1 10 \, 0.2 190 200;
#X obj 172 -159 s bang2;
#X obj 230 620 r bang2;
#X obj 230 645 random 2;
#X obj 158 257 vline~;
#X obj 232 255 tgl 20 0 empty empty empty 0 -10 0 12 #fcfcfc #000000 #000000 0 1;
#X obj 232 280 metro 20;
#X obj 231 669 sel 0 1;
#X obj 158 280 snapshot~;
#X obj 156 193 r bang;
#X obj 195 807 tgl 20 0 empty empty empty 0 -10 0 12 #fcfcfc #000000 #000000 0 1;
#X obj 195 832 metro 20;
#X obj 121 832 snapshot~;
#X floatatom 121 857 8 0 0 0 - - - 0;
#X msg 158 218 200 10 \, 120 200 500;
#X obj 197 780 delwrite~ velcro 1000;
#X obj 364 778 delread~ velcro;
#X obj 317 758 *~;
#X obj 351 748 vsl 10 40 0 1 0 0 empty empty empty 0 -9 0 12 #fcfcfc #000000 #000000 0 1;
#X floatatom 364 755 5 0 0 0 - - - 0;
#X obj 315 832 *~;
#X obj 348 822 vsl 10 40 0 1 0 0 empty empty empty 0 -9 0 12 #fcfcfc #000000 #000000 0 1;
#X obj 470 -342 tgl 20 0 empty empty empty 0 -10 0 12 #fcfcfc #000000 #000000 0 1;
#X floatatom 580 -343 3 0 0 0 - - - 0;
#X text 573 -297 reverb -feedback;
#X text 458 -300 on/off;
#X obj 244 366 r cl-;
#X obj 294 365 r cl+;
#X obj 470 -320 s io;
#X obj 45 -418 r io;
#X floatatom 525 -342 5 0 0 0 - - - 0;
#X text 523 -300 speed (ms), f 5;
#X obj 525 -321 s ms;
#X obj 128 -413 r ms;
#X obj 580 -318 s rfeed;
#X obj 263 306 r rfeed;
#X floatatom 656 -340 5 0 0 0 - - - 0;
#X obj 526 -420 vsl 20 70 0 5000 0 0 empty empty empty 0 -9 0 12 #fcfcfc #000000 #000000 0 1;
#X obj 580 -421 vsl 20 70 0 100 0 0 empty empty empty 0 -9 0 12 #fcfcfc #000000 #000000 0 1;
#X text 653 -298 clipping;
#X obj 703 -367 * -1;
#X floatatom 703 -341 5 0 0 0 - - - 0;
#X obj 655 -318 s cl+;
#X obj 703 -319 s cl-;
#X obj 655 -417 vsl 20 70 0 3 0 0 empty empty empty 0 -9 0 12 #fcfcfc #000000 #000000 0 1;
#X obj 29 567 r one;
#X obj 161 567 r two;
#X obj 270 560 r three;
#X obj 400 555 r four;
#X text 787 -444 noise bank;
#X obj 808 -404 vsl 10 70 0 1 0 0 empty empty empty 0 -9 0 12 #fcfcfc #000000 #000000 0 1;
#X obj 823 -404 vsl 10 70 0 50 0 0 empty empty empty 0 -9 0 12 #fcfcfc #000000 #000000 0 1;
#X obj 863 -402 vsl 10 70 0 1 0 0 empty empty empty 0 -9 0 12 #fcfcfc #000000 #000000 0 1;
#X obj 878 -402 vsl 10 70 0 50 0 0 empty empty empty 0 -9 0 12 #fcfcfc #000000 #000000 0 1;
#X obj 920 -402 vsl 10 70 0 1 0 0 empty empty empty 0 -9 0 12 #fcfcfc #000000 #000000 0 1;
#X obj 935 -402 vsl 10 70 0 50 0 0 empty empty empty 0 -9 0 12 #fcfcfc #000000 #000000 0 1;
#X obj 979 -401 vsl 10 70 0 1 0 0 empty empty empty 0 -9 0 12 #fcfcfc #000000 #000000 0 1;
#X obj 994 -401 vsl 10 70 0 500 0 0 empty empty empty 0 -9 0 12 #fcfcfc #000000 #000000 0 1;
#X obj 6 459 r q1;
#X obj 126 453 r q2;
#X obj 241 448 r q3;
#X obj 371 378 r q4;
#X obj 808 -305 s one;
#X obj 823 -327 s q1;
#X obj 858 -301 s two;
#X obj 873 -323 s q2;
#X obj 931 -319 s q3;
#X obj 916 -297 s three;
#X obj 991 -317 s q4;
#X obj 976 -295 s four;
#X obj 360 723 r dfeed;
#X obj 371 822 r dvol;
#X text 1056 -455 delay;
#X msg 121 437 1 1000 \, 0 0 2000 \, 1 1000 3000;
#X obj 1085 -394 vsl 20 70 0 1 0 0 empty empty empty 0 -9 0 12 #fcfcfc #000000 #000000 0 1;
#X obj 1145 -396 vsl 20 70 0 1 0 0 empty empty empty 0 -9 0 12 #fcfcfc #000000 #000000 0 1;
#X obj 1085 -319 s dfeed;
#X obj 1145 -322 s dvol;
#X text 777 -424 |(volume \, bandpass filter Q);
#X text 1065 -431 feedback;
#X text 1135 -430 volume;
#X floatatom 1090 -290 5 0 0 0 - - - 0;
#X obj 1091 -263 s dtime;
#X obj 422 744 r dtime;
#X obj 536 714 r cvol;
#X connect 0 0 49 1;
#X connect 1 0 46 0;
#X connect 1 0 4 0;
#X connect 2 0 3 1;
#X connect 3 0 5 0;
#X connect 4 0 3 0;
#X connect 5 0 6 0;
#X connect 5 0 45 0;
#X connect 5 0 100 0;
#X connect 5 0 103 0;
#X connect 5 0 107 0;
#X connect 6 0 7 0;
#X connect 6 0 8 0;
#X connect 7 0 6 1;
#X connect 8 0 102 0;
#X connect 10 0 11 0;
#X connect 10 0 15 0;
#X connect 10 0 16 0;
#X connect 10 0 14 0;
#X connect 10 0 13 0;
#X connect 10 0 12 0;
#X connect 11 0 17 0;
#X connect 12 0 22 0;
#X connect 13 0 23 0;
#X connect 14 0 18 0;
#X connect 15 0 19 0;
#X connect 16 0 20 0;
#X connect 17 0 28 0;
#X connect 17 0 32 0;
#X connect 17 0 36 0;
#X connect 17 0 34 0;
#X connect 18 0 39 0;
#X connect 18 0 40 0;
#X connect 18 0 36 0;
#X connect 18 0 48 0;
#X connect 19 0 41 0;
#X connect 19 0 42 0;
#X connect 19 0 38 0;
#X connect 19 0 48 0;
#X connect 20 0 43 0;
#X connect 20 0 44 0;
#X connect 20 0 37 0;
#X connect 20 0 48 0;
#X connect 21 0 25 0;
#X connect 22 0 29 0;
#X connect 22 0 31 0;
#X connect 22 0 37 0;
#X connect 22 0 34 0;
#X connect 23 0 30 0;
#X connect 23 0 33 0;
#X connect 23 0 38 0;
#X connect 23 0 34 0;
#X connect 24 0 0 0;
#X connect 25 0 49 0;
#X connect 26 0 25 1;
#X connect 26 0 47 0;
#X connect 27 0 0 1;
#X connect 28 0 24 0;
#X connect 29 0 24 0;
#X connect 30 0 24 0;
#X connect 31 0 21 0;
#X connect 32 0 21 0;
#X connect 33 0 21 0;
#X connect 34 0 26 0;
#X connect 35 0 34 0;
#X connect 36 0 27 0;
#X connect 37 0 27 0;
#X connect 38 0 27 0;
#X connect 39 0 24 0;
#X connect 41 0 24 0;
#X connect 43 0 24 0;
#X connect 45 0 10 0;
#X connect 46 0 2 0;
#X connect 48 0 26 0;
#X connect 49 0 96 0;
#X connect 49 1 96 0;
#X connect 50 0 49 2;
#X connect 51 0 49 3;
#X connect 53 0 54 0;
#X connect 54 0 92 0;
#X connect 55 0 56 0;
#X connect 56 0 57 0;
#X connect 57 0 58 0;
#X connect 57 0 67 0;
#X connect 57 0 77 0;
#X connect 57 0 88 0;
#X connect 57 0 90 0;
#X connect 58 0 54 1;
#X connect 59 0 54 2;
#X connect 60 0 85 0;
#X connect 61 0 60 1;
#X connect 62 0 63 0;
#X connect 63 0 93 0;
#X connect 64 0 63 2;
#X connect 65 0 85 0;
#X connect 66 0 65 1;
#X connect 67 0 63 1;
#X connect 68 0 69 0;
#X connect 69 0 94 0;
#X connect 70 0 69 2;
#X connect 71 0 85 0;
#X connect 72 0 71 1;
#X connect 73 0 91 0;
#X connect 74 0 90 1;
#X connect 75 0 85 0;
#X connect 76 0 75 1;
#X connect 77 0 69 1;
#X connect 78 0 86 0;
#X connect 79 0 82 0;
#X connect 80 0 79 0;
#X connect 81 0 84 0;
#X connect 82 0 83 0;
#X connect 83 0 78 0;
#X connect 84 0 82 0;
#X connect 84 0 86 0;
#X connect 84 0 83 0;
#X connect 85 0 52 0;
#X connect 85 0 52 1;
#X connect 85 0 126 0;
#X connect 86 0 87 0;
#X connect 89 0 80 0;
#X connect 90 0 91 1;
#X connect 91 0 95 0;
#X connect 92 0 60 0;
#X connect 93 0 65 0;
#X connect 94 0 71 0;
#X connect 95 0 75 0;
#X connect 96 0 85 0;
#X connect 96 0 97 0;
#X connect 97 0 52 0;
#X connect 97 0 52 1;
#X connect 98 0 97 1;
#X connect 99 0 85 1;
#X connect 99 0 123 0;
#X connect 101 0 110 0;
#X connect 102 0 9 0;
#X connect 103 0 104 0;
#X connect 104 0 105 0;
#X connect 105 0 106 0;
#X connect 106 0 109 0;
#X connect 107 0 108 0;
#X connect 108 0 106 1;
#X connect 109 0 112 0;
#X connect 110 0 99 0;
#X connect 111 0 99 0;
#X connect 113 0 114 0;
#X connect 114 0 118 0;
#X connect 115 0 119 0;
#X connect 116 0 117 0;
#X connect 117 0 119 0;
#X connect 118 0 110 0;
#X connect 118 1 111 0;
#X connect 119 0 50 0;
#X connect 120 0 125 0;
#X connect 121 0 122 0;
#X connect 122 0 123 0;
#X connect 123 0 124 0;
#X connect 125 0 115 0;
#X connect 127 0 128 0;
#X connect 127 0 131 0;
#X connect 128 0 126 0;
#X connect 129 0 128 1;
#X connect 130 0 127 0;
#X connect 131 0 52 0;
#X connect 131 0 52 1;
#X connect 132 0 131 1;
#X connect 133 0 139 0;
#X connect 134 0 145 0;
#X connect 137 0 96 1;
#X connect 138 0 96 2;
#X connect 140 0 4 0;
#X connect 141 0 143 0;
#X connect 144 0 2 0;
#X connect 146 0 51 0;
#X connect 147 0 151 0;
#X connect 147 0 153 0;
#X connect 148 0 141 0;
#X connect 149 0 134 0;
#X connect 151 0 152 0;
#X connect 152 0 154 0;
#X connect 155 0 147 0;
#X connect 156 0 61 0;
#X connect 157 0 66 0;
#X connect 158 0 72 0;
#X connect 159 0 76 0;
#X connect 161 0 173 0;
#X connect 162 0 174 0;
#X connect 163 0 175 0;
#X connect 164 0 176 0;
#X connect 165 0 178 0;
#X connect 166 0 177 0;
#X connect 167 0 180 0;
#X connect 168 0 179 0;
#X connect 169 0 59 0;
#X connect 170 0 64 0;
#X connect 171 0 70 0;
#X connect 172 0 74 0;
#X connect 181 0 129 0;
#X connect 182 0 132 0;
#X connect 185 0 187 0;
#X connect 186 0 188 0;
#X connect 192 0 193 0;
#X connect 194 0 130 0;
#X connect 195 0 98 0;
#X coords 0 -1 1 1 85 60 1 100 100;
