#N canvas -1 -2 1360 725 12;
#X obj 85 -460 loadbang;
#X floatatom 85 -390 9 0 0 0 empty - - 12;
#X obj 58 -343 metro;
#X obj 45 -390 tgl 25 0 empty empty empty 17 7 0 10 #e4e4e4 #4d4d4d #373737 0 1;
#X obj 53 -306 bng 25 250 50 0 empty empty empty 17 7 0 10 #e4e4e4 #4d4d4d #373737;
#X obj 53 -272 int 1;
#X obj 115 -247 + 1;
#X floatatom 53 -229 5 0 0 0 empty - - 12;
#X obj 53 -173 + 1;
#X floatatom 53 -142 5 0 0 0 empty - - 12;
#X obj 54 -83 sel 1;
#X obj 104 -83 sel 2;
#X obj 165 -83 sel 3;
#X obj 221 -83 sel 4;
#X obj 276 -83 sel 5;
#X obj 336 -83 sel 6;
#X obj 395 -83 sel 7;
#X obj 458 -83 sel 8;
#X obj 54 -50 bng 17 250 50 0 empty empty empty 17 7 0 10 #e4e4e4 #4d4d4d #373737;
#X obj 221 -54 bng 20 250 50 0 empty empty empty 17 7 0 10 #e4e4e4 #4d4d4d #373737;
#X obj 276 -54 bng 20 250 50 0 empty empty empty 17 7 0 10 #e4e4e4 #4d4d4d #373737;
#X obj 336 -54 bng 20 250 50 0 empty empty empty 17 7 0 10 #e4e4e4 #4d4d4d #373737;
#X obj 458 -54 bng 20 250 50 0 empty empty empty 17 7 0 10 #e4e4e4 #4d4d4d #373737;
#X obj 517 -83 sel 9;
#X obj 515 -50 bng 20 250 50 0 empty empty empty 17 7 0 10 #e4e4e4 #4d4d4d #373737;
#X msg 93 -423 250;
#X obj 573 -86 sel 10;
#X obj 578 -54 bng 18 250 50 0 empty empty empty 17 7 0 10 #e4e4e4 #4d4d4d #373737;
#X obj 53 -202 % 10;
#X obj -129 -144 + 1;
#X floatatom -129 -115 5 0 0 0 empty - - 12;
#X obj 104 -54 bng 18 250 50 0 empty empty empty 17 7 0 10 #e4e4e4 #4d4d4d #373737;
#X obj 165 -48 bng 18 250 50 0 empty empty empty 17 7 0 10 #e4e4e4 #4d4d4d #373737;
#X obj 399 -49 bng 18 250 50 0 empty empty empty 17 7 0 10 #e4e4e4 #4d4d4d #373737;
#X obj -129 -88 sel 1;
#X obj -129 -59 bng 21 250 50 0 empty empty empty 17 7 0 10 #e4e4e4 #4d4d4d #373737;
#X obj -131 -22 s newpattern;
#X obj 50 -21 s one;
#X obj 100 -21 s two;
#X obj 161 -21 s three;
#X obj 218 -21 s four;
#X obj 276 -25 s five;
#X obj 336 -25 s six;
#X obj 399 -22 s seven;
#X obj 458 -25 s eight;
#X obj 515 -21 s nine;
#X obj 578 -27 s ten;
#X obj 57 85 r newpattern;
#X obj 3 85 r one;
#X obj 3 114 bng 25 250 50 0 empty empty empty 17 7 0 10 #e4e4e4 #4d4d4d #373737;
#X obj 3 333 spigot;
#X obj 57 114 bng 19 250 50 0 empty empty empty 17 7 0 10 #e4e4e4 #4d4d4d #373737;
#X obj 57 148 random 100;
#X obj 226 85 r newpattern;
#X obj 172 114 bng 25 250 50 0 empty empty empty 17 7 0 10 #e4e4e4 #4d4d4d #373737;
#X obj 172 359 spigot;
#X obj 226 114 bng 19 250 50 0 empty empty empty 17 7 0 10 #e4e4e4 #4d4d4d #373737;
#X obj 226 148 random 100;
#X obj 379 85 r newpattern;
#X obj 325 114 bng 25 250 50 0 empty empty empty 17 7 0 10 #e4e4e4 #4d4d4d #373737;
#X obj 325 346 spigot;
#X obj 379 114 bng 19 250 50 0 empty empty empty 17 7 0 10 #e4e4e4 #4d4d4d #373737;
#X obj 379 148 random 100;
#X obj 555 85 r newpattern;
#X obj 501 114 bng 25 250 50 0 empty empty empty 17 7 0 10 #e4e4e4 #4d4d4d #373737;
#X obj 501 346 spigot;
#X obj 555 114 bng 19 250 50 0 empty empty empty 17 7 0 10 #e4e4e4 #4d4d4d #373737;
#X obj 555 148 random 100;
#X obj 172 85 r two;
#X obj 325 85 r three;
#X obj 501 85 r four;
#X obj 720 88 r newpattern;
#X obj 666 117 bng 25 250 50 0 empty empty empty 17 7 0 10 #e4e4e4 #4d4d4d #373737;
#X obj 666 346 spigot;
#X obj 720 117 bng 19 250 50 0 empty empty empty 17 7 0 10 #e4e4e4 #4d4d4d #373737;
#X obj 720 151 random 100;
#X obj 666 88 r five;
#X obj 872 87 r newpattern;
#X obj 818 116 bng 25 250 50 0 empty empty empty 17 7 0 10 #e4e4e4 #4d4d4d #373737;
#X obj 818 346 spigot;
#X obj 872 116 bng 19 250 50 0 empty empty empty 17 7 0 10 #e4e4e4 #4d4d4d #373737;
#X obj 872 150 random 100;
#X obj 818 87 r six;
#X obj 1026 87 r newpattern;
#X obj 972 116 bng 25 250 50 0 empty empty empty 17 7 0 10 #e4e4e4 #4d4d4d #373737;
#X obj 972 346 spigot;
#X obj 1026 116 bng 19 250 50 0 empty empty empty 17 7 0 10 #e4e4e4 #4d4d4d #373737;
#X obj 1026 150 random 100;
#X obj 972 87 r seven;
#X obj 1184 84 r newpattern;
#X obj 1130 113 bng 25 250 50 0 empty empty empty 17 7 0 10 #e4e4e4 #4d4d4d #373737;
#X obj 1130 346 spigot;
#X obj 1184 113 bng 19 250 50 0 empty empty empty 17 7 0 10 #e4e4e4 #4d4d4d #373737;
#X obj 1184 147 random 100;
#X obj 1130 84 r eight;
#X obj 1342 87 r newpattern;
#X obj 1288 116 bng 25 250 50 0 empty empty empty 17 7 0 10 #e4e4e4 #4d4d4d #373737;
#X obj 1288 346 spigot;
#X obj 1342 116 bng 19 250 50 0 empty empty empty 17 7 0 10 #e4e4e4 #4d4d4d #373737;
#X obj 1342 150 random 100;
#X obj 1288 87 r nine;
#X obj 1501 88 r newpattern;
#X obj 1447 117 bng 25 250 50 0 empty empty empty 17 7 0 10 #e4e4e4 #4d4d4d #373737;
#X obj 1447 346 spigot;
#X obj 1501 117 bng 19 250 50 0 empty empty empty 17 7 0 10 #e4e4e4 #4d4d4d #373737;
#X obj 1501 151 random 100;
#X obj 1447 88 r ten;
#X floatatom 57 177 5 0 0 0 empty - - 12;
#X obj 57 204 < 80;
#X floatatom 57 233 5 0 0 0 empty - - 12;
#X obj 57 260 sel 1;
#X obj 57 289 tgl 19 0 empty empty empty 17 7 0 10 #e4e4e4 #4d4d4d #373737 0 1;
#X floatatom 226 186 5 0 0 0 empty - - 12;
#X floatatom 226 242 5 0 0 0 empty - - 12;
#X obj 226 269 sel 1;
#X obj 226 298 tgl 19 0 empty empty empty 17 7 0 10 #e4e4e4 #4d4d4d #373737 0 1;
#X floatatom 387 182 5 0 0 0 empty - - 12;
#X obj 387 209 < 80;
#X floatatom 387 238 5 0 0 0 empty - - 12;
#X obj 387 265 sel 1;
#X obj 387 294 tgl 19 0 empty empty empty 17 7 0 10 #e4e4e4 #4d4d4d #373737 0 1;
#X floatatom 559 186 5 0 0 0 empty - - 12;
#X floatatom 559 242 5 0 0 0 empty - - 12;
#X obj 559 269 sel 1;
#X obj 559 298 tgl 19 0 empty empty empty 17 7 0 10 #e4e4e4 #4d4d4d #373737 0 1;
#X floatatom 726 186 5 0 0 0 empty - - 12;
#X floatatom 726 242 5 0 0 0 empty - - 12;
#X obj 726 269 sel 1;
#X obj 726 298 tgl 19 0 empty empty empty 17 7 0 10 #e4e4e4 #4d4d4d #373737 0 1;
#X floatatom 880 196 5 0 0 0 empty - - 12;
#X obj 880 223 < 80;
#X floatatom 880 252 5 0 0 0 empty - - 12;
#X obj 880 279 sel 1;
#X obj 880 308 tgl 19 0 empty empty empty 17 7 0 10 #e4e4e4 #4d4d4d #373737 0 1;
#X floatatom 1028 184 5 0 0 0 empty - - 12;
#X floatatom 1028 240 5 0 0 0 empty - - 12;
#X obj 1028 267 sel 1;
#X obj 1028 296 tgl 19 0 empty empty empty 17 7 0 10 #e4e4e4 #4d4d4d #373737 0 1;
#X floatatom 1184 184 5 0 0 0 empty - - 12;
#X floatatom 1184 240 5 0 0 0 empty - - 12;
#X obj 1184 267 sel 1;
#X obj 1184 296 tgl 19 0 empty empty empty 17 7 0 10 #e4e4e4 #4d4d4d #373737 0 1;
#X floatatom 1342 183 5 0 0 0 empty - - 12;
#X obj 1342 210 < 80;
#X floatatom 1342 239 5 0 0 0 empty - - 12;
#X obj 1342 266 sel 1;
#X obj 1342 295 tgl 19 0 empty empty empty 17 7 0 10 #e4e4e4 #4d4d4d #373737 0 1;
#X floatatom 1501 186 5 0 0 0 empty - - 12;
#X floatatom 1501 242 5 0 0 0 empty - - 12;
#X obj 1501 269 sel 1;
#X obj 1501 298 tgl 19 0 empty empty empty 17 7 0 10 #e4e4e4 #4d4d4d #373737 0 1;
#X obj -129 -173 % 20;
#X msg -78 -272 6;
#X msg -78 -240 12;
#X obj -78 -317 bng 25 250 50 0 empty empty empty 17 7 0 10 #e4e4e4 #4d4d4d #373737;
#X obj -129 -317 bng 25 250 50 0 empty empty empty 17 7 0 10 #e4e4e4 #4d4d4d #373737;
#X msg -129 -272 10;
#X msg -129 -244 20;
#X obj 226 213 < 40;
#X obj -193 -317 bng 25 250 50 0 empty empty empty 17 7 0 10 #e4e4e4 #4d4d4d #373737;
#X msg -193 -272 7;
#X msg -193 -240 14;
#X obj 688 456 s kick;
#X obj 559 213 < 30;
#X obj 726 213 < 60;
#X obj 1028 211 < 30;
#X obj 1184 211 < 40;
#X obj 1501 213 < 40;
#X obj 49 534 r newpattern;
#X obj -5 534 r one;
#X obj -5 563 bng 25 250 50 0 empty empty empty 17 7 0 10 #e4e4e4 #4d4d4d #373737;
#X obj -5 782 spigot;
#X obj 49 563 bng 19 250 50 0 empty empty empty 17 7 0 10 #e4e4e4 #4d4d4d #373737;
#X obj 49 597 random 100;
#X obj 218 534 r newpattern;
#X obj 164 563 bng 25 250 50 0 empty empty empty 17 7 0 10 #e4e4e4 #4d4d4d #373737;
#X obj 152 795 spigot;
#X obj 218 563 bng 19 250 50 0 empty empty empty 17 7 0 10 #e4e4e4 #4d4d4d #373737;
#X obj 218 597 random 100;
#X obj 371 534 r newpattern;
#X obj 317 563 bng 25 250 50 0 empty empty empty 17 7 0 10 #e4e4e4 #4d4d4d #373737;
#X obj 317 795 spigot;
#X obj 371 563 bng 19 250 50 0 empty empty empty 17 7 0 10 #e4e4e4 #4d4d4d #373737;
#X obj 371 597 random 100;
#X obj 547 534 r newpattern;
#X obj 493 563 bng 25 250 50 0 empty empty empty 17 7 0 10 #e4e4e4 #4d4d4d #373737;
#X obj 493 795 spigot;
#X obj 547 563 bng 19 250 50 0 empty empty empty 17 7 0 10 #e4e4e4 #4d4d4d #373737;
#X obj 547 597 random 100;
#X obj 164 534 r two;
#X obj 317 534 r three;
#X obj 493 534 r four;
#X obj 712 537 r newpattern;
#X obj 658 566 bng 25 250 50 0 empty empty empty 17 7 0 10 #e4e4e4 #4d4d4d #373737;
#X obj 658 795 spigot;
#X obj 712 566 bng 19 250 50 0 empty empty empty 17 7 0 10 #e4e4e4 #4d4d4d #373737;
#X obj 712 600 random 100;
#X obj 658 537 r five;
#X obj 864 536 r newpattern;
#X obj 810 565 bng 25 250 50 0 empty empty empty 17 7 0 10 #e4e4e4 #4d4d4d #373737;
#X obj 810 795 spigot;
#X obj 864 565 bng 19 250 50 0 empty empty empty 17 7 0 10 #e4e4e4 #4d4d4d #373737;
#X obj 864 599 random 100;
#X obj 810 536 r six;
#X obj 1018 536 r newpattern;
#X obj 964 565 bng 25 250 50 0 empty empty empty 17 7 0 10 #e4e4e4 #4d4d4d #373737;
#X obj 964 795 spigot;
#X obj 1018 565 bng 19 250 50 0 empty empty empty 17 7 0 10 #e4e4e4 #4d4d4d #373737;
#X obj 1018 599 random 100;
#X obj 964 536 r seven;
#X obj 1176 533 r newpattern;
#X obj 1122 562 bng 25 250 50 0 empty empty empty 17 7 0 10 #e4e4e4 #4d4d4d #373737;
#X obj 1122 795 spigot;
#X obj 1176 562 bng 19 250 50 0 empty empty empty 17 7 0 10 #e4e4e4 #4d4d4d #373737;
#X obj 1176 596 random 100;
#X obj 1122 533 r eight;
#X obj 1334 536 r newpattern;
#X obj 1280 565 bng 25 250 50 0 empty empty empty 17 7 0 10 #e4e4e4 #4d4d4d #373737;
#X obj 1280 795 spigot;
#X obj 1334 565 bng 19 250 50 0 empty empty empty 17 7 0 10 #e4e4e4 #4d4d4d #373737;
#X obj 1334 599 random 100;
#X obj 1280 536 r nine;
#X obj 1493 537 r newpattern;
#X obj 1439 566 bng 25 250 50 0 empty empty empty 17 7 0 10 #e4e4e4 #4d4d4d #373737;
#X obj 1439 795 spigot;
#X obj 1493 566 bng 19 250 50 0 empty empty empty 17 7 0 10 #e4e4e4 #4d4d4d #373737;
#X obj 1493 600 random 100;
#X obj 1439 537 r ten;
#X floatatom 49 626 5 0 0 0 empty - - 12;
#X floatatom 49 682 5 0 0 0 empty - - 12;
#X obj 49 709 sel 1;
#X obj 49 738 tgl 19 0 empty empty empty 17 7 0 10 #e4e4e4 #4d4d4d #373737 0 1;
#X floatatom 218 635 5 0 0 0 empty - - 12;
#X floatatom 218 691 5 0 0 0 empty - - 12;
#X obj 218 718 sel 1;
#X obj 218 747 tgl 19 0 empty empty empty 17 7 0 10 #e4e4e4 #4d4d4d #373737 0 1;
#X floatatom 379 631 5 0 0 0 empty - - 12;
#X floatatom 379 687 5 0 0 0 empty - - 12;
#X obj 379 714 sel 1;
#X obj 379 743 tgl 19 0 empty empty empty 17 7 0 10 #e4e4e4 #4d4d4d #373737 0 1;
#X floatatom 551 635 5 0 0 0 empty - - 12;
#X floatatom 551 691 5 0 0 0 empty - - 12;
#X obj 551 718 sel 1;
#X obj 551 747 tgl 19 0 empty empty empty 17 7 0 10 #e4e4e4 #4d4d4d #373737 0 1;
#X floatatom 718 635 5 0 0 0 empty - - 12;
#X floatatom 718 691 5 0 0 0 empty - - 12;
#X obj 718 718 sel 1;
#X obj 718 747 tgl 19 0 empty empty empty 17 7 0 10 #e4e4e4 #4d4d4d #373737 0 1;
#X floatatom 872 645 5 0 0 0 empty - - 12;
#X floatatom 872 701 5 0 0 0 empty - - 12;
#X obj 872 728 sel 1;
#X obj 872 757 tgl 19 0 empty empty empty 17 7 0 10 #e4e4e4 #4d4d4d #373737 0 1;
#X floatatom 1020 633 5 0 0 0 empty - - 12;
#X floatatom 1020 689 5 0 0 0 empty - - 12;
#X obj 1020 716 sel 1;
#X obj 1020 745 tgl 19 0 empty empty empty 17 7 0 10 #e4e4e4 #4d4d4d #373737 0 1;
#X floatatom 1176 633 5 0 0 0 empty - - 12;
#X floatatom 1176 689 5 0 0 0 empty - - 12;
#X obj 1176 716 sel 1;
#X obj 1176 745 tgl 19 0 empty empty empty 17 7 0 10 #e4e4e4 #4d4d4d #373737 0 1;
#X floatatom 1334 632 5 0 0 0 empty - - 12;
#X floatatom 1334 688 5 0 0 0 empty - - 12;
#X obj 1334 715 sel 1;
#X obj 1334 744 tgl 19 0 empty empty empty 17 7 0 10 #e4e4e4 #4d4d4d #373737 0 1;
#X floatatom 1493 635 5 0 0 0 empty - - 12;
#X floatatom 1493 691 5 0 0 0 empty - - 12;
#X obj 1493 718 sel 1;
#X obj 1493 747 tgl 19 0 empty empty empty 17 7 0 10 #e4e4e4 #4d4d4d #373737 0 1;
#X obj 551 662 < 30;
#X obj 680 905 s snare;
#X obj 49 653 < 30;
#X obj 218 662 < 80;
#X obj 379 658 < 40;
#X obj 718 662 < 80;
#X obj 872 672 < 40;
#X obj 1020 660 < 80;
#X obj 1176 660 < 70;
#X obj 1334 659 < 30;
#X obj 1493 662 < 80;
#X obj 133 204 vsl 9 105 0 100 0 0 empty empty empty 0 -9 0 10 #e4e4e4 #4d4d4d #373737 0 1;
#X obj 297 198 vsl 9 105 0 100 0 0 empty empty empty 0 -9 0 10 #e4e4e4 #4d4d4d #373737 0 1;
#X obj 442 198 vsl 9 105 0 100 0 0 empty empty empty 0 -9 0 10 #e4e4e4 #4d4d4d #373737 0 1;
#X obj 631 198 vsl 9 105 0 100 0 0 empty empty empty 0 -9 0 10 #e4e4e4 #4d4d4d #373737 0 1;
#X obj 796 208 vsl 9 105 0 100 0 0 empty empty empty 0 -9 0 10 #e4e4e4 #4d4d4d #373737 0 1;
#X obj 935 208 vsl 9 103 0 100 0 0 empty empty empty 0 -9 0 10 #e4e4e4 #4d4d4d #373737 0 1;
#X obj 1089 208 vsl 9 105 0 100 0 0 empty empty empty 0 -9 0 10 #e4e4e4 #4d4d4d #373737 0 1;
#X obj 1247 211 vsl 9 105 0 100 0 0 empty empty empty 0 -9 0 10 #e4e4e4 #4d4d4d #373737 0 1;
#X obj 1401 177 vsl 9 105 0 100 0 0 empty empty empty 0 -9 0 10 #e4e4e4 #4d4d4d #373737 0 1;
#X obj 1556 181 vsl 9 105 0 100 0 0 empty empty empty 0 -9 0 10 #e4e4e4 #4d4d4d #373737 0 1;
#X obj 106 635 vsl 9 105 0 100 0 0 empty empty empty 0 -9 0 10 #e4e4e4 #4d4d4d #373737 0 1;
#X obj 279 630 vsl 9 105 0 100 0 0 empty empty empty 0 -9 0 10 #e4e4e4 #4d4d4d #373737 0 1;
#X obj 441 634 vsl 9 105 0 100 0 0 empty empty empty 0 -9 0 10 #e4e4e4 #4d4d4d #373737 0 1;
#X obj 618 635 vsl 9 105 0 100 0 0 empty empty empty 0 -9 0 10 #e4e4e4 #4d4d4d #373737 0 1;
#X obj 776 630 vsl 9 105 0 100 0 0 empty empty empty 0 -9 0 10 #e4e4e4 #4d4d4d #373737 0 1;
#X obj 923 636 vsl 9 105 0 100 0 0 empty empty empty 0 -9 0 10 #e4e4e4 #4d4d4d #373737 0 1;
#X obj 1082 649 vsl 9 105 0 100 0 0 empty empty empty 0 -9 0 10 #e4e4e4 #4d4d4d #373737 0 1;
#X obj 1238 632 vsl 9 105 0 100 0 0 empty empty empty 0 -9 0 10 #e4e4e4 #4d4d4d #373737 0 1;
#X obj 1392 636 vsl 9 105 0 100 0 0 empty empty empty 0 -9 0 10 #e4e4e4 #4d4d4d #373737 0 1;
#X obj 1553 632 vsl 9 105 0 100 0 0 empty empty empty 0 -9 0 10 #e4e4e4 #4d4d4d #373737 0 1;
#X obj -168 -595 * 4;
#X obj -179 -552 %;
#X obj -181 -528 + 1;
#X floatatom -182 -498 5 0 0 0 empty - - 12;
#X obj -184 -470 sel 1;
#X floatatom -184 -407 5 0 0 0 empty - - 12;
#X obj -192 -349 sel 1;
#X obj -131 -343 sel 2;
#X obj -78 -343 sel 3;
#X obj -28 -320 bng 25 250 50 0 empty empty empty 17 7 0 10 #e4e4e4 #4d4d4d #373737;
#X obj -28 -346 sel 4;
#X msg -28 -275 3;
#X msg -28 -243 6;
#X obj -191 -436 random 4;
#X obj 125 177 r kickweight_1;
#X obj 294 167 r kickweight_2;
#X obj 439 167 r kickweight_3;
#X obj 623 169 r kickweight_4;
#X obj 783 177 r kickweight_5;
#X obj 930 177 r kickweight_6;
#X obj 1079 178 r kickweight_7;
#X obj 1243 178 r kickweight_8;
#X obj 427 -408 env~;
#X floatatom 427 -324 10 0 0 0 empty - - 16;
#X obj 571 -444 vsl 17 128 0 500 0 0 empty empty empty 0 -9 0 10 #e3dfd9 #5a5a5a #5a5a5a 0 1;
#X obj 464 -561 adc~;
#X obj 380 -524 / 2;
#X obj 427 -450 bp~;
#X floatatom 490 -495 8 0 0 0 empty - - 16;
#X floatatom 501 -466 7 0 0 0 empty - - 16;
#X obj 427 -355 line;
#X obj 380 -495 * 10;
#X msg 435 -381 \$1 300;
#X obj 155 -486 vsl 12 83 50 500 0 0 empty empty empty 0 -9 0 10 #e3dfd9 #5a5a5a #5a5a5a 0 1;
#X floatatom 290 -485 9 0 0 0 empty - - 0;
#X obj 237 -454 /;
#X floatatom 229 -427 7 0 0 0 empty - - 16;
#X msg 186 -486 60000, f 8;
#N canvas 0 50 450 300 (subpatch) 0;
#X restore 335 -435 pd;
#X obj 317 -364 spigot;
#X obj 350 -394 tgl 19 0 empty empty empty 0 -10 0 12 #fcfcfc #000000 #000000 0 1;
#X obj -160 1025 openpanel;
#X obj -160 1073 soundfiler;
#X floatatom -160 1097 5 0 0 0 - - - 0;
#X obj -160 1120 s samplesize;
#X obj -165 1145 expr 44100 / $f1;
#X obj -118 1215 hsl 162 19 0 10 0 0 empty empty empty -2 -10 0 12 #fcfcfc #000000 #000000 0 1;
#X floatatom -124 1169 5 0 0 0 - - - 0;
#X floatatom -121 1239 7 0 0 0 - - - 0;
#X obj -155 1272 phasor~;
#X obj -155 1320 *~;
#X obj -104 1297 r samplesize;
#N canvas 0 50 450 250 (subpatch) 0;
#X array snare 25692 float 2;
#X coords 0 1 25692 -1 200 140 1 0 0;
#X restore 67 1133 graph;
#X obj -29 1134 tgl 19 0 empty empty empty 0 -10 0 12 #fcfcfc #000000 #000000 0 1;
#X obj -29 1158 metro 50;
#X obj -29 1182 snapshot~;
#X obj -160 995 bng 19 250 50 0 empty empty empty 0 -10 0 12 #fcfcfc #000000 #000000;
#X obj -204 1479 *~;
#X obj -156 1548 dac~ 1 2;
#X obj -143 1455 vsl 10 50 0 1 0 0 empty empty empty 0 -9 0 12 #fcfcfc #000000 #000000 0 1;
#X msg -160 1049 read -resize \$1 snare;
#X obj 302 1019 openpanel;
#X obj 302 1067 soundfiler;
#X floatatom 302 1091 5 0 0 0 - - - 0;
#X obj 302 1114 s samplesize;
#X obj 297 1139 expr 44100 / $f1;
#X obj 346 1200 hsl 162 19 0 10 0 0 empty empty empty -2 -10 0 12 #fcfcfc #000000 #000000 0 1;
#X floatatom 338 1163 5 0 0 0 - - - 0;
#X floatatom 341 1233 7 0 0 0 - - - 0;
#X obj 307 1266 phasor~;
#X obj 307 1314 *~;
#X obj 358 1291 r samplesize;
#N canvas 0 50 450 250 (subpatch) 0;
#X array bass 31785 float 2;
#X coords 0 1 31785 -1 200 140 1 0 0;
#X restore 515 1124 graph;
#X obj 433 1115 tgl 19 0 empty empty empty 0 -10 0 12 #fcfcfc #000000 #000000 0 1;
#X obj 433 1139 metro 50;
#X obj 433 1163 snapshot~;
#X obj 302 989 bng 19 250 50 0 empty empty empty 0 -10 0 12 #fcfcfc #000000 #000000;
#X obj 310 1444 *~;
#X obj 306 1542 dac~ 1 2;
#X obj 383 1414 vsl 10 50 0 1 0 0 empty empty empty 0 -9 0 12 #fcfcfc #000000 #000000 0 1;
#X obj -210 1419 tabread4~ snare;
#X obj 304 1384 tabread4~ bass;
#X msg 301 1044 read -resize \$1 bass;
#X obj -4 1135 line~;
#X obj -5 1033 r snare;
#X msg 51 1097 0;
#X obj 457 1117 line~;
#X msg 514 1074 0;
#X obj 458 1010 r kick;
#X msg 456 1073 0.7;
#X msg -7 1096 5;
#X obj 32 1073 del 150;
#X obj 495 1050 del 150;
#X obj 57 1517 rev3~ 100 90;
#X floatatom 86 1459 5 0 0 0 - - - 0;
#X floatatom 112 1429 5 0 0 0 - - - 0;
#X floatatom 113 1481 5 0 0 0 - - - 0;
#X floatatom 155 1462 5 0 0 0 - - - 0;
#X connect 0 0 3 0;
#X connect 0 0 25 0;
#X connect 1 0 2 1;
#X connect 2 0 4 0;
#X connect 3 0 2 0;
#X connect 4 0 5 0;
#X connect 5 0 6 0;
#X connect 5 0 7 0;
#X connect 6 0 5 1;
#X connect 7 0 28 0;
#X connect 7 0 151 0;
#X connect 7 0 300 0;
#X connect 8 0 9 0;
#X connect 9 0 10 0;
#X connect 9 0 14 0;
#X connect 9 0 15 0;
#X connect 9 0 16 0;
#X connect 9 0 17 0;
#X connect 9 0 13 0;
#X connect 9 0 12 0;
#X connect 9 0 11 0;
#X connect 9 0 23 0;
#X connect 9 0 26 0;
#X connect 10 0 18 0;
#X connect 11 0 31 0;
#X connect 12 0 32 0;
#X connect 13 0 19 0;
#X connect 14 0 20 0;
#X connect 15 0 21 0;
#X connect 16 0 33 0;
#X connect 17 0 22 0;
#X connect 18 0 37 0;
#X connect 19 0 40 0;
#X connect 20 0 41 0;
#X connect 21 0 42 0;
#X connect 22 0 44 0;
#X connect 23 0 24 0;
#X connect 24 0 45 0;
#X connect 25 0 1 0;
#X connect 26 0 27 0;
#X connect 27 0 46 0;
#X connect 28 0 8 0;
#X connect 29 0 30 0;
#X connect 30 0 34 0;
#X connect 31 0 38 0;
#X connect 32 0 39 0;
#X connect 33 0 43 0;
#X connect 34 0 35 0;
#X connect 35 0 36 0;
#X connect 47 0 51 0;
#X connect 48 0 49 0;
#X connect 49 0 50 0;
#X connect 50 0 162 0;
#X connect 51 0 52 0;
#X connect 52 0 107 0;
#X connect 53 0 56 0;
#X connect 54 0 55 0;
#X connect 55 0 162 0;
#X connect 56 0 57 0;
#X connect 57 0 112 0;
#X connect 58 0 61 0;
#X connect 59 0 60 0;
#X connect 60 0 162 0;
#X connect 61 0 62 0;
#X connect 62 0 116 0;
#X connect 63 0 66 0;
#X connect 64 0 65 0;
#X connect 65 0 162 0;
#X connect 66 0 67 0;
#X connect 67 0 121 0;
#X connect 68 0 54 0;
#X connect 69 0 59 0;
#X connect 70 0 64 0;
#X connect 71 0 74 0;
#X connect 72 0 73 0;
#X connect 73 0 162 0;
#X connect 74 0 75 0;
#X connect 75 0 125 0;
#X connect 76 0 72 0;
#X connect 77 0 80 0;
#X connect 78 0 79 0;
#X connect 79 0 162 0;
#X connect 80 0 81 0;
#X connect 81 0 129 0;
#X connect 82 0 78 0;
#X connect 83 0 86 0;
#X connect 84 0 85 0;
#X connect 85 0 162 0;
#X connect 86 0 87 0;
#X connect 87 0 134 0;
#X connect 88 0 84 0;
#X connect 89 0 92 0;
#X connect 90 0 91 0;
#X connect 91 0 162 0;
#X connect 92 0 93 0;
#X connect 93 0 138 0;
#X connect 94 0 90 0;
#X connect 95 0 98 0;
#X connect 96 0 97 0;
#X connect 97 0 162 0;
#X connect 98 0 99 0;
#X connect 99 0 142 0;
#X connect 100 0 96 0;
#X connect 101 0 104 0;
#X connect 102 0 103 0;
#X connect 103 0 162 0;
#X connect 104 0 105 0;
#X connect 105 0 147 0;
#X connect 106 0 102 0;
#X connect 107 0 108 0;
#X connect 108 0 109 0;
#X connect 109 0 110 0;
#X connect 110 0 111 0;
#X connect 111 0 50 1;
#X connect 112 0 158 0;
#X connect 113 0 114 0;
#X connect 114 0 115 0;
#X connect 115 0 55 1;
#X connect 116 0 117 0;
#X connect 117 0 118 0;
#X connect 118 0 119 0;
#X connect 119 0 120 0;
#X connect 120 0 60 1;
#X connect 121 0 163 0;
#X connect 122 0 123 0;
#X connect 123 0 124 0;
#X connect 124 0 65 1;
#X connect 125 0 164 0;
#X connect 126 0 127 0;
#X connect 127 0 128 0;
#X connect 128 0 73 1;
#X connect 129 0 130 0;
#X connect 130 0 131 0;
#X connect 131 0 132 0;
#X connect 132 0 133 0;
#X connect 133 0 79 1;
#X connect 134 0 165 0;
#X connect 135 0 136 0;
#X connect 136 0 137 0;
#X connect 137 0 85 1;
#X connect 138 0 166 0;
#X connect 139 0 140 0;
#X connect 140 0 141 0;
#X connect 141 0 91 1;
#X connect 142 0 143 0;
#X connect 143 0 144 0;
#X connect 144 0 145 0;
#X connect 145 0 146 0;
#X connect 146 0 97 1;
#X connect 147 0 167 0;
#X connect 148 0 149 0;
#X connect 149 0 150 0;
#X connect 150 0 103 1;
#X connect 151 0 29 0;
#X connect 152 0 28 1;
#X connect 153 0 151 1;
#X connect 153 0 299 0;
#X connect 154 0 152 0;
#X connect 154 0 153 0;
#X connect 155 0 156 0;
#X connect 155 0 157 0;
#X connect 156 0 28 1;
#X connect 157 0 151 1;
#X connect 157 0 299 0;
#X connect 158 0 113 0;
#X connect 159 0 160 0;
#X connect 159 0 161 0;
#X connect 160 0 28 1;
#X connect 161 0 151 1;
#X connect 161 0 299 0;
#X connect 163 0 122 0;
#X connect 164 0 126 0;
#X connect 165 0 135 0;
#X connect 166 0 139 0;
#X connect 167 0 148 0;
#X connect 168 0 172 0;
#X connect 169 0 170 0;
#X connect 170 0 171 0;
#X connect 171 0 269 0;
#X connect 172 0 173 0;
#X connect 173 0 228 0;
#X connect 174 0 177 0;
#X connect 175 0 176 0;
#X connect 176 0 269 0;
#X connect 177 0 178 0;
#X connect 178 0 232 0;
#X connect 179 0 182 0;
#X connect 180 0 181 0;
#X connect 181 0 269 0;
#X connect 182 0 183 0;
#X connect 183 0 236 0;
#X connect 184 0 187 0;
#X connect 185 0 186 0;
#X connect 186 0 269 0;
#X connect 187 0 188 0;
#X connect 188 0 240 0;
#X connect 189 0 175 0;
#X connect 190 0 180 0;
#X connect 191 0 185 0;
#X connect 192 0 195 0;
#X connect 193 0 194 0;
#X connect 194 0 269 0;
#X connect 195 0 196 0;
#X connect 196 0 244 0;
#X connect 197 0 193 0;
#X connect 198 0 201 0;
#X connect 199 0 200 0;
#X connect 200 0 269 0;
#X connect 201 0 202 0;
#X connect 202 0 248 0;
#X connect 203 0 199 0;
#X connect 204 0 207 0;
#X connect 205 0 206 0;
#X connect 206 0 269 0;
#X connect 207 0 208 0;
#X connect 208 0 252 0;
#X connect 209 0 205 0;
#X connect 210 0 213 0;
#X connect 211 0 212 0;
#X connect 212 0 269 0;
#X connect 213 0 214 0;
#X connect 214 0 256 0;
#X connect 215 0 211 0;
#X connect 216 0 219 0;
#X connect 217 0 218 0;
#X connect 218 0 269 0;
#X connect 219 0 220 0;
#X connect 220 0 260 0;
#X connect 221 0 217 0;
#X connect 222 0 225 0;
#X connect 223 0 224 0;
#X connect 224 0 269 0;
#X connect 225 0 226 0;
#X connect 226 0 264 0;
#X connect 227 0 223 0;
#X connect 228 0 270 0;
#X connect 229 0 230 0;
#X connect 230 0 231 0;
#X connect 231 0 171 1;
#X connect 232 0 271 0;
#X connect 233 0 234 0;
#X connect 234 0 235 0;
#X connect 235 0 176 1;
#X connect 236 0 272 0;
#X connect 237 0 238 0;
#X connect 238 0 239 0;
#X connect 239 0 181 1;
#X connect 240 0 268 0;
#X connect 241 0 242 0;
#X connect 242 0 243 0;
#X connect 243 0 186 1;
#X connect 244 0 273 0;
#X connect 245 0 246 0;
#X connect 246 0 247 0;
#X connect 247 0 194 1;
#X connect 248 0 274 0;
#X connect 249 0 250 0;
#X connect 250 0 251 0;
#X connect 251 0 200 1;
#X connect 252 0 275 0;
#X connect 253 0 254 0;
#X connect 254 0 255 0;
#X connect 255 0 206 1;
#X connect 256 0 276 0;
#X connect 257 0 258 0;
#X connect 258 0 259 0;
#X connect 259 0 212 1;
#X connect 260 0 277 0;
#X connect 261 0 262 0;
#X connect 262 0 263 0;
#X connect 263 0 218 1;
#X connect 264 0 278 0;
#X connect 265 0 266 0;
#X connect 266 0 267 0;
#X connect 267 0 224 1;
#X connect 268 0 241 0;
#X connect 270 0 229 0;
#X connect 271 0 233 0;
#X connect 272 0 237 0;
#X connect 273 0 245 0;
#X connect 274 0 249 0;
#X connect 275 0 253 0;
#X connect 276 0 257 0;
#X connect 277 0 261 0;
#X connect 278 0 265 0;
#X connect 279 0 108 1;
#X connect 280 0 158 1;
#X connect 281 0 117 1;
#X connect 282 0 163 1;
#X connect 283 0 164 1;
#X connect 284 0 130 1;
#X connect 285 0 165 1;
#X connect 286 0 166 1;
#X connect 287 0 143 1;
#X connect 288 0 167 1;
#X connect 289 0 270 1;
#X connect 290 0 271 1;
#X connect 291 0 272 1;
#X connect 292 0 268 1;
#X connect 293 0 273 1;
#X connect 294 0 274 1;
#X connect 295 0 275 1;
#X connect 296 0 276 1;
#X connect 297 0 277 1;
#X connect 298 0 278 1;
#X connect 299 0 300 1;
#X connect 300 0 301 0;
#X connect 301 0 302 0;
#X connect 302 0 303 0;
#X connect 303 0 312 0;
#X connect 304 0 305 0;
#X connect 304 0 306 0;
#X connect 304 0 307 0;
#X connect 304 0 309 0;
#X connect 305 0 159 0;
#X connect 306 0 155 0;
#X connect 307 0 154 0;
#X connect 308 0 310 0;
#X connect 308 0 311 0;
#X connect 309 0 308 0;
#X connect 310 0 28 1;
#X connect 311 0 151 1;
#X connect 312 0 304 0;
#X connect 313 0 279 0;
#X connect 314 0 280 0;
#X connect 315 0 281 0;
#X connect 316 0 282 0;
#X connect 317 0 283 0;
#X connect 318 0 284 0;
#X connect 319 0 285 0;
#X connect 320 0 286 0;
#X connect 321 0 331 0;
#X connect 322 0 325 0;
#X connect 322 0 338 0;
#X connect 324 0 326 0;
#X connect 324 1 326 0;
#X connect 325 0 330 0;
#X connect 326 0 321 0;
#X connect 327 0 326 1;
#X connect 328 0 326 2;
#X connect 329 0 322 0;
#X connect 330 0 323 0;
#X connect 331 0 329 0;
#X connect 332 0 336 0;
#X connect 332 0 333 0;
#X connect 332 0 1 0;
#X connect 333 0 334 1;
#X connect 334 0 335 0;
#X connect 336 0 334 0;
#X connect 338 0 1 0;
#X connect 339 0 338 1;
#X connect 340 0 359 0;
#X connect 341 0 342 0;
#X connect 341 0 344 0;
#X connect 342 0 343 0;
#X connect 344 0 348 0;
#X connect 344 0 346 0;
#X connect 345 0 347 0;
#X connect 346 0 345 0;
#X connect 347 0 348 0;
#X connect 348 0 349 0;
#X connect 349 0 379 0;
#X connect 350 0 349 1;
#X connect 352 0 353 0;
#X connect 353 0 354 0;
#X connect 354 0 345 0;
#X connect 355 0 340 0;
#X connect 356 0 392 0;
#X connect 356 0 357 1;
#X connect 358 0 356 1;
#X connect 359 0 341 0;
#X connect 360 0 381 0;
#X connect 361 0 362 0;
#X connect 361 0 364 0;
#X connect 362 0 363 0;
#X connect 364 0 368 0;
#X connect 364 0 366 0;
#X connect 365 0 367 0;
#X connect 366 0 365 0;
#X connect 367 0 368 0;
#X connect 368 0 369 0;
#X connect 369 0 380 0;
#X connect 370 0 369 1;
#X connect 372 0 373 0;
#X connect 373 0 374 0;
#X connect 374 0 365 0;
#X connect 375 0 360 0;
#X connect 376 0 377 0;
#X connect 376 0 392 1;
#X connect 378 0 376 1;
#X connect 379 0 356 0;
#X connect 380 0 376 0;
#X connect 381 0 361 0;
#X connect 382 0 354 0;
#X connect 383 0 389 0;
#X connect 383 0 390 0;
#X connect 384 0 382 0;
#X connect 385 0 374 0;
#X connect 386 0 385 0;
#X connect 387 0 388 0;
#X connect 387 0 391 0;
#X connect 388 0 385 0;
#X connect 389 0 382 0;
#X connect 390 0 384 0;
#X connect 391 0 386 0;
#X connect 392 0 357 0;
#X connect 392 1 377 1;
#X connect 393 0 392 2;
#X connect 394 0 392 3;
#X connect 395 0 392 4;
#X connect 396 0 392 5;
