#N canvas 827 239 527 327 12;
#X obj 141 121 square~;
#X obj 248 121 tri~ 440;
#X obj 626 62 osc~ 440;
#X obj 599 239 merge~;
#X obj 239 316 *~;
#X obj 301 286 vsl 6 64 0 1 0 0 empty empty empty 0 -9 0 10 #e3dfd9 #5a5a5a #5a5a5a 0 1;
#X floatatom 122 74 8 0 0 0 empty - - 16;
#X floatatom 251 73 7 0 0 0 empty - - 16;
#X floatatom 637 7 10 0 0 0 empty - - 24;
#X obj 192 26 vsl 8 64 0 1 0 0 empty empty empty 0 -9 0 10 #e3dfd9 #5a5a5a #5a5a5a 0 1;
#X obj 325 364 oscope~ 314 208 7 3 87 -1 1 112 0 0 0 90 90 90 227 223 217 150 142 130 0 empty;
#X obj 601 213 snake~ 2;
#X obj 592 66 vu 20 120 empty empty -1 -8 0 10 #191919 #5a5a5a 1 0;
#X obj 233 526 dac~;
#X obj 154 197 *~;
#X obj 216 167 vsl 8 64 0 1 0 0 empty empty empty 0 -9 0 10 #e3dfd9 #5a5a5a #5a5a5a 0 1;
#X obj 253 197 *~;
#X obj 315 166 vsl 8 64 0 1 0 0 empty empty empty 0 -9 0 10 #e3dfd9 #5a5a5a #5a5a5a 0 1;
#X obj 335 197 *~;
#X obj 397 167 vsl 8 64 0 1 0 0 empty empty empty 0 -9 0 10 #e3dfd9 #5a5a5a #5a5a5a 0 1;
#X obj 244 258 drive~;
#X floatatom 262 227 5 0 0 0 empty - - 12;
#X obj 339 116 saw~ 440;
#X floatatom 331 79 7 0 0 0 empty - - 16;
#X floatatom 398 82 5 0 0 0 empty - - 12;
#X obj 307 256 crusher~ 0.1 0.1;
#X obj 435 166 vsl 8 64 0 1 0 0 empty empty empty 0 -9 0 10 #e3dfd9 #5a5a5a #5a5a5a 0 1;
#X obj 455 166 vsl 8 64 0 1 0 0 empty empty empty 0 -9 0 10 #e3dfd9 #5a5a5a #5a5a5a 0 1;
#X obj 86 -113 keyboard 16 80 4 2 0 0 empty empty;
#X obj 100 3 mtof;
#X obj 100 392 palette/lowpass;
#X floatatom 125 329 5 0 0 0 empty - - 12;
#X floatatom 173 322 5 0 0 0 empty - - 12;
#X connect 0 0 14 0;
#X connect 1 0 16 0;
#X connect 4 0 10 0;
#X connect 4 0 30 0;
#X connect 5 0 4 1;
#X connect 6 0 0 0;
#X connect 7 0 1 0;
#X connect 8 0 2 0;
#X connect 9 0 0 1;
#X connect 14 0 4 0;
#X connect 15 0 14 1;
#X connect 16 0 20 0;
#X connect 17 0 16 1;
#X connect 18 0 25 0;
#X connect 19 0 18 1;
#X connect 20 0 4 0;
#X connect 21 0 20 1;
#X connect 22 0 18 0;
#X connect 23 0 22 0;
#X connect 24 0 22 2;
#X connect 25 0 4 0;
#X connect 26 0 25 1;
#X connect 27 0 25 2;
#X connect 28 0 29 0;
#X connect 29 0 6 0;
#X connect 29 0 7 0;
#X connect 29 0 23 0;
#X connect 30 0 13 0;
#X connect 30 0 13 1;
#X connect 31 0 30 1;
#X connect 32 0 30 2;
