#N canvas 827 239 527 327 12;
#X obj 306 72 tgl 25 0 empty empty empty 17 7 0 10 #e3dfd9 #5a5a5a #5a5a5a 0 1;
#X obj 306 106 metro 500;
#X obj 306 135 float;
#X obj 368 135 + 1;
#X floatatom 374 170 5 0 0 0 empty - - 12;
#X obj 374 230 + 1;
#X floatatom 376 268 5 0 0 0 empty - - 12;
#X obj 376 309 sel 1 2 3 4 5 6 7 8 9 10;
#X obj 374 202 % 10;
#X obj 283 369 bng 20 250 50 0 empty empty empty 17 7 0 10 #e3dfd9 #5a5a5a #5a5a5a;
#X obj 316 369 bng 20 250 50 0 empty empty empty 17 7 0 10 #e3dfd9 #5a5a5a #5a5a5a;
#X obj 349 369 bng 20 250 50 0 empty empty empty 17 7 0 10 #e3dfd9 #5a5a5a #5a5a5a;
#X obj 376 369 bng 20 250 50 0 empty empty empty 17 7 0 10 #e3dfd9 #5a5a5a #5a5a5a;
#X obj 406 369 bng 20 250 50 0 empty empty empty 17 7 0 10 #e3dfd9 #5a5a5a #5a5a5a;
#X obj 436 369 bng 20 250 50 0 empty empty empty 17 7 0 10 #e3dfd9 #5a5a5a #5a5a5a;
#X obj 465 369 bng 20 250 50 0 empty empty empty 17 7 0 10 #e3dfd9 #5a5a5a #5a5a5a;
#X obj 494 369 bng 20 250 50 0 empty empty empty 17 7 0 10 #e3dfd9 #5a5a5a #5a5a5a;
#X obj 522 369 bng 20 250 50 0 empty empty empty 17 7 0 10 #e3dfd9 #5a5a5a #5a5a5a;
#X obj 549 369 bng 20 250 50 0 empty empty empty 17 7 0 10 #e3dfd9 #5a5a5a #5a5a5a;
#X obj 576 369 bng 20 250 50 0 empty empty empty 17 7 0 10 #e3dfd9 #5a5a5a #5a5a5a;
#X obj 409 7 vsl 12 83 50 500 0 0 empty empty empty 0 -9 0 10 #e3dfd9 #5a5a5a #5a5a5a 0 1;
#X floatatom 477 107 9 0 0 0 empty - - 16;
#X obj 457 139 /;
#X floatatom 449 166 7 0 0 0 empty - - 16;
#X msg 406 107 60000, f 8;
#N canvas 0 50 450 300 (subpatch) 0;
#X restore 555 158 pd;
#X connect 0 0 1 0;
#X connect 1 0 2 0;
#X connect 2 0 3 0;
#X connect 3 0 2 1;
#X connect 3 0 4 0;
#X connect 4 0 8 0;
#X connect 5 0 6 0;
#X connect 6 0 7 0;
#X connect 7 0 9 0;
#X connect 7 1 10 0;
#X connect 7 2 12 0;
#X connect 7 3 13 0;
#X connect 7 4 14 0;
#X connect 7 5 15 0;
#X connect 7 6 16 0;
#X connect 7 7 17 0;
#X connect 7 8 18 0;
#X connect 7 9 19 0;
#X connect 8 0 5 0;
#X connect 20 0 1 1;
#X connect 20 0 24 0;
#X connect 20 0 21 0;
#X connect 21 0 22 1;
#X connect 22 0 23 0;
#X connect 24 0 22 0;
