#N canvas 1920 22 1366 712 12;
#X obj 143 604 dac~;
#X obj 49 214 noise~;
#X obj 66 262 bp~, f 5;
#X obj 105 71 adc~;
#X obj 106 103 env~;
#X floatatom 106 130 9 0 0 0 - - - 0;
#X obj 104 204 * 100;
#X floatatom 108 231 5 0 0 0 - - - 0;
#X obj 90 367 *~;
#X obj 134 344 vsl 10 40 0 1 0 0 empty empty empty 0 -9 0 12 #fcfcfc #000000 #000000 0 1;
#X obj 168 205 noise~;
#X obj 185 253 bp~, f 5;
#X floatatom 227 222 5 0 0 0 - - - 0;
#X obj 204 365 *~;
#X obj 269 347 vsl 10 40 0 1 0 0 empty empty empty 0 -9 0 12 #fcfcfc #000000 #000000 0 1;
#X obj 223 195 * 180;
#X obj 71 314 *~ -0.5 0.5;
#X obj 185 312 *~ -0.3 0.3;
#X obj 282 207 noise~;
#X obj 299 255 bp~, f 5;
#X floatatom 341 224 5 0 0 0 - - - 0;
#X obj 323 360 *~;
#X obj 367 337 vsl 10 40 0 1 0 0 empty empty empty 0 -9 0 12 #fcfcfc #000000 #000000 0 1;
#X obj 401 198 noise~;
#X floatatom 480 146 5 0 0 0 - - - 0;
#X obj 437 358 *~;
#X obj 502 340 vsl 10 40 0 1 0 0 empty empty empty 0 -9 0 12 #fcfcfc #000000 #000000 0 1;
#X obj 304 307 *~ -0.5 0.5;
#X obj 337 198 * 300;
#X obj 232 520 phasor~;
#X obj 253 495 osc~;
#X floatatom 251 470 5 0 0 0 - - - 0;
#X obj 296 472 tgl 20 0 empty empty empty 0 -10 0 12 #fcfcfc #000000 #000000 0 1;
#X obj 296 522 snapshot~;
#X floatatom 296 547 5 0 0 0 - - - 0;
#X obj 296 497 metro 50;
#X obj 162 542 *~;
#X obj 226 543 snapshot~;
#X floatatom 228 572 5 0 0 0 - - - 0;
#X obj 250 118 s env;
#X obj 255 415 r env;
#X obj 456 188 * 10;
#X obj 418 246 lop~, f 5;
#X obj 418 305 *~ -0.9 0.9;
#X connect 1 0 2 0;
#X connect 2 0 16 0;
#X connect 3 0 4 0;
#X connect 4 0 5 0;
#X connect 5 0 6 0;
#X connect 5 0 15 0;
#X connect 5 0 28 0;
#X connect 5 0 23 0;
#X connect 5 0 39 0;
#X connect 5 0 41 0;
#X connect 6 0 2 1;
#X connect 7 0 2 2;
#X connect 8 0 36 0;
#X connect 9 0 8 1;
#X connect 10 0 11 0;
#X connect 11 0 17 0;
#X connect 12 0 11 2;
#X connect 13 0 36 0;
#X connect 14 0 13 1;
#X connect 15 0 11 1;
#X connect 16 0 8 0;
#X connect 17 0 13 0;
#X connect 18 0 19 0;
#X connect 19 0 27 0;
#X connect 20 0 19 2;
#X connect 21 0 36 0;
#X connect 22 0 21 1;
#X connect 23 0 42 0;
#X connect 24 0 41 1;
#X connect 25 0 36 0;
#X connect 26 0 25 1;
#X connect 27 0 21 0;
#X connect 28 0 19 1;
#X connect 29 0 37 0;
#X connect 30 0 33 0;
#X connect 31 0 30 0;
#X connect 32 0 35 0;
#X connect 33 0 34 0;
#X connect 34 0 29 0;
#X connect 35 0 33 0;
#X connect 35 0 37 0;
#X connect 35 0 34 0;
#X connect 36 0 0 0;
#X connect 37 0 38 0;
#X connect 38 0 36 1;
#X connect 40 0 31 0;
#X connect 41 0 42 1;
#X connect 42 0 43 0;
#X connect 43 0 25 0;
