#N canvas 321 -9 1360 725 12;
#X obj 204 107 openpanel;
#X obj 204 155 soundfiler;
#X floatatom 204 179 5 0 0 0 - - - 0;
#X obj 204 202 s samplesize;
#X obj 199 227 expr 44100 / $f1;
#X obj 246 297 hsl 162 19 0 10000 0 0 empty empty empty -2 -10 0 12 #fcfcfc #000000 #000000 0 1;
#X floatatom 240 251 5 0 0 0 - - - 0;
#X floatatom 243 321 7 0 0 0 - - - 0;
#X obj 209 354 phasor~;
#X obj 209 402 *~;
#X obj 260 379 r samplesize;
#N canvas 0 50 450 250 (subpatch) 0;
#X array channelL 25692 float 2;
#X coords 0 1 25692 -1 200 140 1;
#X restore 564 59 graph;
#N canvas 0 50 450 250 (subpatch) 0;
#X array channelR 25692 float 2;
#X coords 0 1 25692 -1 200 140 1 0 0;
#X restore 560 231 graph;
#X obj 394 353 tgl 19 0 empty empty empty 0 -10 0 12 #fcfcfc #000000 #000000 0 1;
#X obj 394 377 metro 50;
#X obj 394 401 snapshot~;
#X floatatom 394 425 5 0 0 0 - - - 0;
#X obj 394 448 /;
#X floatatom 394 472 5 0 0 0 - - - 0;
#X obj 441 424 r samplesize;
#X obj 204 77 bng 19 250 50 0 empty empty empty 0 -10 0 12 #fcfcfc #000000 #000000;
#X obj 154 501 tabread4~ channelL;
#X obj 293 513 tabread4~ channelR;
#X obj 160 561 *~;
#X obj 292 558 *~;
#X obj 208 630 dac~ 1 2;
#X obj 562 381 hsl 195 19 0 127 0 0 empty empty empty -2 -10 0 12 #fcfcfc #000000 #000000 0 1;
#X obj 221 537 vsl 10 50 0 1 0 0 empty empty empty 0 -9 0 12 #fcfcfc #000000 #000000 0 1;
#X msg 204 131 read -resize \$1 channelL channelR;
#X connect 0 0 28 0;
#X connect 1 0 2 0;
#X connect 1 0 4 0;
#X connect 2 0 3 0;
#X connect 4 0 8 0;
#X connect 4 0 6 0;
#X connect 5 0 7 0;
#X connect 6 0 5 0;
#X connect 7 0 8 0;
#X connect 8 0 9 0;
#X connect 9 0 15 0;
#X connect 9 0 21 0;
#X connect 9 0 22 0;
#X connect 10 0 9 1;
#X connect 13 0 14 0;
#X connect 14 0 15 0;
#X connect 15 0 16 0;
#X connect 16 0 17 0;
#X connect 17 0 18 0;
#X connect 18 0 26 0;
#X connect 19 0 17 1;
#X connect 20 0 0 0;
#X connect 21 0 23 0;
#X connect 22 0 24 0;
#X connect 23 0 25 0;
#X connect 24 0 25 1;
#X connect 27 0 24 1;
#X connect 27 0 23 1;
#X connect 28 0 1 0;
