#N canvas 0 21 1366 713 12;
#X obj 89 17 notein;
#X floatatom 89 39 5 0 0 0 - - - 0;
#X floatatom 129 40 5 0 0 0 - - - 0;
#X obj 299 362 vline~;
#X obj 566 465 vsl 14 45 0 1 0 0 empty empty empty 0 -9 0 12 #fcfcfc #000000 #000000 0 1;
#X obj 280 386 *~;
#X obj 471 673 dac~;
#X floatatom 818 76 4 0 100 0 - - - 0;
#X obj 669 417 *~;
#N canvas 103 130 563 534 fft 0;
#X obj 19 61 inlet~;
#X obj 208 212 inlet;
#X obj 29 92 rfft~;
#X obj 29 125 *~;
#X obj 60 125 *~;
#X obj 29 155 sqrt~;
#X obj 332 109 block~ 4096 1;
#X obj 29 181 biquad~ 0 0 0 0 1;
#X text 93 93 Fourier series;
#X text 98 146 magnitude;
#X text 96 131 calculate;
#X text 21 3 This subpatch computes the spectrum of the incoming signal with a (rectangular windowed) FFT. FFTs aren't properly introduced until much later.;
#X text 83 61 signal to analyze;
#X text 193 164 delay two samples;
#X text 191 182 for better graphing;
#X obj 264 434 samplerate~;
#X obj 245 233 inlet;
#X text 298 231 toggle to graph repeatedly;
#X text 262 212 bang to graph once;
#X obj 29 205 /~ 4096;
#X obj 264 409 bang~;
#X obj 264 483 s freq;
#X obj 264 457 / 256;
#X obj 19 295 tabwrite~ F05-signal;
#X obj 245 294 tabwrite~ F05-spectrum;
#X msg 224 321 \; pd dsp 1;
#X obj 245 262 metro 50;
#X connect 0 0 2 0;
#X connect 0 0 23 0;
#X connect 1 0 23 0;
#X connect 1 0 24 0;
#X connect 1 0 25 0;
#X connect 2 0 3 0;
#X connect 2 0 3 1;
#X connect 2 1 4 0;
#X connect 2 1 4 1;
#X connect 3 0 5 0;
#X connect 4 0 5 0;
#X connect 5 0 7 0;
#X connect 7 0 19 0;
#X connect 15 0 22 0;
#X connect 16 0 25 0;
#X connect 16 0 26 0;
#X connect 19 0 24 0;
#X connect 20 0 15 0;
#X connect 22 0 21 0;
#X connect 26 0 23 0;
#X connect 26 0 24 0;
#X restore 721 453 pd fft;
#X f 8;
#X obj 762 433 tgl 19 0 empty empty empty 0 -6 0 8 #dfdfdf #000000 #000000 0 1;
#X floatatom 683 357 3 0 100 0 - - - 0;
#X obj 686 397 osc~;
#X obj 686 378 *;
#X obj 669 450 hip~ 5;
#X obj 819 178 line~;
#X obj 670 267 cos~;
#X obj 819 154 pack 0 50;
#X obj 669 203 -~ 0.5;
#X obj 669 223 *~;
#X obj 819 94 / 10;
#X obj 819 114 moses 0;
#X msg 819 134 0;
#X obj 670 245 clip~ -0.5 0.5;
#X obj 819 202 +~ 1;
#X obj 670 291 +~ 1;
#X obj 670 315 *~ 0.5;
#X obj 669 183 phasor~;
#X floatatom 706 421 5 0 0 0 - - - 0;
#X msg 474 343 1 20 \, 0 50 100;
#X obj 279 57 sel 48 50 51 53 41 43 44 46;
#X msg 492 318 1 20 \, 0 10 50;
#X obj 89 81 s ringmod;
#X obj 818 36 r ringmod;
#X obj 474 234 sel 0 1 2 3;
#X floatatom 474 217 5 0 0 0 - - - 0;
#X obj 473 177 bng 19 250 50 0 empty empty empty 0 -10 0 12 #fcfcfc #000000 #000000;
#X obj 474 197 random 4;
#X msg 548 253 1 20 \, 0 50 200;
#X obj 89 61 s bang;
#X obj 473 157 r bang;
#X msg 279 113 440;
#X msg 358 114 810;
#X msg 399 115 1160;
#X obj 279 248 osc~;
#X obj 317 248 osc~;
#X obj 354 249 osc~;
#X obj 390 249 osc~;
#X obj 354 229 * 4;
#X obj 390 229 * 7;
#X obj 317 228 * 3;
#X msg 318 113 510;
#X obj 97 183 ctlin;
#X floatatom 97 203 3 0 0 0 - - - 0;
#X floatatom 121 203 3 0 0 0 - - - 0;
#X msg 444 115 50;
#X msg 359 89 560;
#X msg 400 89 615;
#X msg 317 89 735;
#X msg 279 88 128;
#X floatatom 188 82 5 0 0 0 - - - 0;
#X obj 188 39 bng 19 250 50 0 empty empty empty 0 -10 0 12 #fcfcfc #000000 #000000;
#X obj 187 18 r bang;
#X msg 335 208 2;
#X msg 335 187 1.24;
#X msg 334 169 0.5;
#X msg 334 147 0.75;
#X obj 188 104 sel 0 1 2;
#X obj 188 60 random 3;
#X msg 372 209 5;
#X msg 373 191 5.7;
#X msg 374 170 4.3;
#X msg 408 209 8;
#X msg 408 189 6.75;
#X msg 409 169 8.3;
#N canvas 0 0 450 300 (subpatch) 0;
#X array F05-signal 882 float 0;
#X coords 0 1 882 -1 400 260 1 0 0;
#X restore 908 224 graph;
#X obj 734 120 osc~;
#X obj 668 119 metro 20;
#X obj 668 100 tgl 19 0 empty empty empty 0 -10 0 12 #fcfcfc #000000 #000000 0 1;
#X obj 668 139 snapshot~;
#X floatatom 668 163 9 0 0 0 - - - 0;
#X floatatom 734 101 4 0 0 0 - - - 0;
#X msg 511 295 1 15 \, 0 10 30;
#X msg 528 274 1 10 \, 0 10 20;
#X obj 471 514 clip~ -0.5 0.5;
#X floatatom 40 290 3 0 0 0 - - - 0;
#X obj 518 465 vsl 14 45 0 -1 0 0 empty empty empty 0 -9 0 12 #fcfcfc #000000 #000000 0 1;
#X obj 472 410 delread~ del1 1000;
#X msg 308 388 clear;
#X floatatom 472 391 5 0 0 0 - - - 0;
#X obj 354 387 *~;
#X obj 372 339 vsl 14 45 0 1 0 0 empty empty empty 0 -9 0 12 #fcfcfc #000000 #000000 0 1;
#X obj 308 408 delwrite~ del1 5000;
#X obj 725 195 spigot;
#X obj 763 175 tgl 19 0 empty empty empty 0 -10 0 12 #fcfcfc #000000 #000000 0 1;
#X obj 280 496 rev3~, f 15;
#X floatatom 280 477 4 0 0 0 - - - 12;
#X floatatom 311 477 4 0 0 0 - - - 16;
#X obj 16 268 spigot;
#X obj 55 250 == 36;
#X obj 97 269 spigot;
#X obj 137 249 == 37;
#X obj 98 289 / 127;
#X obj 724 215 s delfeed;
#X obj 763 142 r feedosc, f 7;
#X obj 180 289 > 0;
#X obj 219 250 == 38;
#X obj 180 269 spigot;
#X obj 180 309 s feedosc;
#X obj 16 308 * 12;
#X obj 17 374 spigot;
#X obj 17 394 / 127;
#X obj 56 355 == 40;
#X obj 17 414 * -1;
#X obj 17 434 s -;
#X obj 518 443 r -;
#X obj 46 434 s +;
#X obj 566 443 r +;
#X obj 564 572 *~;
#X floatatom 734 358 5 0 0 0 - - - 0;
#X floatatom 122 395 3 0 0 0 - - - 0;
#X obj 97 375 spigot;
#X floatatom 202 395 3 0 0 0 - - - 0;
#X obj 178 375 spigot;
#X obj 136 355 == 41;
#X obj 217 355 == 42;
#X obj 97 434 s rosc;
#X obj 178 433 s roscm;
#X obj 683 337 r rosc;
#X obj 97 414 * 3;
#X obj 732 339 r roscm;
#X obj 178 413 * 2;
#X obj 472 570 *~;
#X obj 509 598 vsl 14 90 0 1 0 0 empty empty empty 0 -9 0 12 #fcfcfc #000000 #000000 0 1;
#X floatatom 61 512 3 0 0 0 - - - 0;
#X obj 43 492 spigot;
#X obj 124 493 spigot;
#X obj 43 531 * 3;
#X obj 82 474 == 39;
#X obj 42 550 s revl;
#X obj 124 552 s revf;
#X obj 124 533 * 100;
#X obj 311 444 r revf, f 4;
#X obj 280 443 r revl, f 4;
#X obj 163 475 == 43;
#X obj 124 513 / 127;
#N canvas 0 50 450 250 (subpatch) 0;
#X array output 100 float 1;
#A 0 0 0 0 0 0 0 0 0 0 0 0 0 0 0 0 0 0 0 0 0 0 0 0 0 0 0 0 0 0 0 0 0 0 0 0 0 0 0 0 0 0 0 0 0 0 0 0 0 0 0 0 0 0 0 0 0 0 0 0 0 0 0 0 0 0 0 0 0 0 0 0 0 0 0 0 0 0 0 0 0 0 0 0 0 0 0 0 0 0 0 0 0 0 0 0 0 0 0 0 0;
#X coords 0 1 99 -1 400 200 1 0 0;
#X restore 908 509 graph;
#X obj 402 710 tabwrite~ output;
#X obj 339 571 tgl 19 0 empty empty empty 0 -10 0 12 #fcfcfc #000000 #000000 0 1;
#X obj 339 590 metro 20;
#X obj 564 594 *~;
#X obj 535 600 vsl 14 90 0 1 0 0 empty empty empty 0 -9 0 12 #fcfcfc #000000 #000000 0 1;
#X obj 471 592 *~;
#X obj 599 601 vsl 14 90 0 1 0 0 empty empty empty 0 -9 0 12 #fcfcfc #000000 #000000 0 1;
#X obj 472 372 r dt;
#X obj 16 328 s dt;
#X obj 98 308 s df;
#X obj 372 317 r df, f 7;
#X obj 510 390 s roscdt;
#X obj 734 50 r roscdt;
#X text 597 695 main;
#X text 500 695 dry/rmod;
#X obj 818 56 / 12;
#X obj 397 638 clip~ -0.9 0.9;
#X floatatom 345 479 5 0 0 0 - - - 0;
#X msg 345 459 1000;
#X obj 344 438 loadbang;
#X obj 744 78 * 2;
#X connect 0 0 1 0;
#X connect 0 1 2 0;
#X connect 1 0 39 0;
#X connect 1 0 30 0;
#X connect 2 0 32 0;
#X connect 3 0 5 1;
#X connect 4 0 84 2;
#X connect 5 0 92 0;
#X connect 5 0 95 0;
#X connect 7 0 20 0;
#X connect 8 0 9 0;
#X connect 8 0 14 0;
#X connect 10 0 9 2;
#X connect 11 0 13 0;
#X connect 12 0 8 1;
#X connect 13 0 12 0;
#X connect 14 0 118 1;
#X connect 15 0 24 0;
#X connect 16 0 25 0;
#X connect 17 0 15 0;
#X connect 18 0 19 0;
#X connect 19 0 23 0;
#X connect 20 0 21 0;
#X connect 21 0 22 0;
#X connect 21 1 17 0;
#X connect 22 0 17 0;
#X connect 23 0 16 0;
#X connect 24 0 19 1;
#X connect 25 0 26 0;
#X connect 26 0 8 0;
#X connect 27 0 18 0;
#X connect 28 0 14 1;
#X connect 29 0 3 0;
#X connect 30 0 41 0;
#X connect 30 1 51 0;
#X connect 30 2 42 0;
#X connect 30 3 43 0;
#X connect 30 3 55 0;
#X connect 30 4 59 0;
#X connect 30 5 58 0;
#X connect 30 6 56 0;
#X connect 30 7 57 0;
#X connect 31 0 3 0;
#X connect 33 0 162 0;
#X connect 34 0 29 0;
#X connect 34 1 31 0;
#X connect 34 2 82 0;
#X connect 34 3 83 0;
#X connect 34 4 38 0;
#X connect 35 0 34 0;
#X connect 36 0 37 0;
#X connect 37 0 35 0;
#X connect 38 0 3 0;
#X connect 40 0 36 0;
#X connect 41 0 44 0;
#X connect 41 0 48 0;
#X connect 41 0 50 0;
#X connect 42 0 44 0;
#X connect 42 0 48 0;
#X connect 42 0 49 0;
#X connect 42 0 50 0;
#X connect 43 0 44 0;
#X connect 43 0 50 0;
#X connect 44 0 5 0;
#X connect 45 0 5 0;
#X connect 46 0 5 0;
#X connect 47 0 5 0;
#X connect 48 0 46 0;
#X connect 49 0 47 0;
#X connect 50 0 45 0;
#X connect 51 0 44 0;
#X connect 51 0 49 0;
#X connect 51 0 50 0;
#X connect 52 0 53 0;
#X connect 52 1 54 0;
#X connect 53 0 98 0;
#X connect 53 0 100 0;
#X connect 53 0 107 0;
#X connect 53 0 110 0;
#X connect 53 0 121 0;
#X connect 53 0 123 0;
#X connect 53 0 136 0;
#X connect 53 0 135 0;
#X connect 54 0 99 0;
#X connect 54 0 101 0;
#X connect 54 0 106 0;
#X connect 54 0 112 0;
#X connect 54 0 124 0;
#X connect 54 0 125 0;
#X connect 54 0 144 0;
#X connect 54 0 138 0;
#X connect 55 0 48 0;
#X connect 55 0 49 0;
#X connect 56 0 44 0;
#X connect 56 0 50 0;
#X connect 56 0 48 0;
#X connect 56 0 49 0;
#X connect 57 0 48 0;
#X connect 57 0 49 0;
#X connect 57 0 50 0;
#X connect 57 0 44 0;
#X connect 58 0 44 0;
#X connect 58 0 50 0;
#X connect 58 0 48 0;
#X connect 58 0 49 0;
#X connect 59 0 44 0;
#X connect 59 0 50 0;
#X connect 59 0 48 0;
#X connect 59 0 49 0;
#X connect 60 0 67 0;
#X connect 61 0 68 0;
#X connect 62 0 61 0;
#X connect 63 0 50 1;
#X connect 64 0 50 1;
#X connect 65 0 50 1;
#X connect 66 0 50 1;
#X connect 67 0 63 0;
#X connect 67 0 69 0;
#X connect 67 0 72 0;
#X connect 67 1 64 0;
#X connect 67 1 70 0;
#X connect 67 1 73 0;
#X connect 67 2 65 0;
#X connect 67 2 71 0;
#X connect 67 2 49 1;
#X connect 67 3 66 0;
#X connect 67 3 48 1;
#X connect 67 3 74 0;
#X connect 68 0 60 0;
#X connect 69 0 48 1;
#X connect 70 0 48 1;
#X connect 71 0 48 1;
#X connect 72 0 49 1;
#X connect 73 0 49 1;
#X connect 74 0 49 1;
#X connect 76 0 79 0;
#X connect 77 0 79 0;
#X connect 78 0 77 0;
#X connect 79 0 80 0;
#X connect 80 0 27 0;
#X connect 80 0 93 0;
#X connect 81 0 76 0;
#X connect 82 0 3 0;
#X connect 83 0 3 0;
#X connect 84 0 118 0;
#X connect 84 0 132 0;
#X connect 85 0 109 1;
#X connect 86 0 84 1;
#X connect 87 0 90 0;
#X connect 87 0 95 1;
#X connect 87 0 84 0;
#X connect 88 0 92 0;
#X connect 89 0 158 0;
#X connect 89 0 87 0;
#X connect 90 0 92 0;
#X connect 91 0 90 1;
#X connect 93 0 103 0;
#X connect 94 0 93 1;
#X connect 95 0 84 0;
#X connect 96 0 95 2;
#X connect 97 0 95 3;
#X connect 98 0 109 0;
#X connect 99 0 98 1;
#X connect 100 0 102 0;
#X connect 101 0 100 1;
#X connect 102 0 156 0;
#X connect 104 0 94 0;
#X connect 105 0 108 0;
#X connect 106 0 107 1;
#X connect 107 0 105 0;
#X connect 109 0 155 0;
#X connect 110 0 111 0;
#X connect 111 0 113 0;
#X connect 111 0 116 0;
#X connect 112 0 110 1;
#X connect 113 0 114 0;
#X connect 115 0 86 0;
#X connect 117 0 4 0;
#X connect 118 0 150 0;
#X connect 119 0 13 1;
#X connect 120 0 129 1;
#X connect 121 0 129 0;
#X connect 122 0 131 1;
#X connect 123 0 131 0;
#X connect 124 0 121 1;
#X connect 125 0 123 1;
#X connect 128 0 11 0;
#X connect 129 0 126 0;
#X connect 130 0 119 0;
#X connect 131 0 127 0;
#X connect 132 0 152 0;
#X connect 133 0 132 1;
#X connect 134 0 137 1;
#X connect 135 0 137 0;
#X connect 136 0 145 0;
#X connect 137 0 139 0;
#X connect 138 0 135 1;
#X connect 141 0 140 0;
#X connect 142 0 97 0;
#X connect 143 0 96 0;
#X connect 144 0 136 1;
#X connect 145 0 141 0;
#X connect 148 0 149 0;
#X connect 150 0 152 0;
#X connect 151 0 150 1;
#X connect 152 0 163 0;
#X connect 153 0 152 1;
#X connect 154 0 89 0;
#X connect 157 0 91 0;
#X connect 159 0 167 0;
#X connect 162 0 7 0;
#X connect 163 0 6 0;
#X connect 163 0 6 1;
#X connect 163 0 147 0;
#X connect 164 0 95 4;
#X connect 165 0 164 0;
#X connect 166 0 165 0;
#X connect 167 0 81 0;
