#N canvas 35 0 1136 716 12;
#N canvas 0 22 450 278 (subpatch) 0;
#X array phasor 4410 float 0;
#X coords 0 1 4409 -1 200 100 1 0 0;
#X restore 797 453 graph;
#X floatatom 515 252 5 -100 100 0 - - - 0;
#X msg 588 277 0;
#X obj 540 373 metro 100;
#X obj 521 308 phasor~ 10;
#X msg 554 277 0.5;
#X text 483 559 -1;
#X text 490 513 0;
#X text 491 462 1;
#X obj 521 407 tabwrite~ phasor;
#X obj 540 345 loadbang;
#X obj 432 304 osc~ 440;
#X obj 432 536 dac~;
#X obj 342 307 osc~ 4400;
#X floatatom 511 143 5 -100 100 0 - - - 0;
#X msg 581 173 0;
#X obj 514 203 phasor~ 10;
#X msg 547 173 0.5;
#X obj 433 415 *~;
#X obj 102 137 +~;
#X obj 102 184 cos~;
#X floatatom 102 57 5 0 0 0 - - - 0;
#X obj 102 98 phasor~ 400;
#X obj 217 98 osc~ 50;
#X obj 217 149 *~;
#X obj 294 173 line~;
#X msg 294 144 \$1 10;
#X floatatom 294 113 8 0 0 0 - - - 0;
#X obj 295 83 hsl 162 19 0 200 0 0 empty empty empty -2 -10 0 12 #dfdfdf #000000 #000000 0 1;
#X floatatom 217 57 5 0 0 0 - - - 0;
#X obj 496 388 bng 19 250 50 0 empty empty empty 0 -10 0 12 #fcfcfc #000000 #000000;
#X obj 220 224 metro 100;
#X obj 220 196 loadbang;
#N canvas 0 22 450 278 (subpatch) 0;
#X array osc 4410 float 0;
#X coords 0 1 4409 -1 200 100 1 0 0;
#X restore 1003 453 graph;
#X obj 203 259 tabwrite~ osc;
#X obj 375 474 *~;
#X obj 307 502 vsl 19 162 0 1 0 0 empty empty empty 0 -9 0 12 #fcfcfc #000000 #000000 0 1;
#X connect 1 0 4 0;
#X connect 2 0 4 1;
#X connect 3 0 9 0;
#X connect 3 0 30 0;
#X connect 4 0 18 1;
#X connect 5 0 4 1;
#X connect 10 0 3 0;
#X connect 11 0 18 0;
#X connect 13 0 18 0;
#X connect 14 0 16 0;
#X connect 15 0 16 1;
#X connect 16 0 18 1;
#X connect 17 0 16 1;
#X connect 18 0 9 0;
#X connect 18 0 35 0;
#X connect 19 0 20 0;
#X connect 20 0 18 0;
#X connect 21 0 22 0;
#X connect 22 0 19 0;
#X connect 23 0 24 0;
#X connect 24 0 19 1;
#X connect 24 0 34 0;
#X connect 25 0 24 1;
#X connect 26 0 25 0;
#X connect 27 0 26 0;
#X connect 28 0 27 0;
#X connect 29 0 23 0;
#X connect 31 0 34 0;
#X connect 32 0 31 0;
#X connect 35 0 12 0;
#X connect 36 0 35 1;
